<svg xmlns="http://www.w3.org/2000/svg" xmlns:xlink="http://www.w3.org/1999/xlink" width="66.04mm" height="55.88mm" viewBox="4020 3024.5 260 220"><title></title><style type="text/css">
*[layerid="1"] {stroke:#FF0000;fill:#FF0000;}
*[layerid="2"] {stroke:#0000FF;fill:#0000FF;}
*[layerid="3"] {stroke:#FFCC00;fill:#FFCC00;}
*[layerid="4"] {stroke:#66CC33;fill:#66CC33;}
*[layerid="5"] {stroke:#808080;fill:#808080;}
*[layerid="6"] {stroke:#800000;fill:#800000;}
*[layerid="7"] {stroke:#800080;fill:#800080;stroke-opacity:0.7;fill-opacity:0.7;}
*[layerid="8"] {stroke:#AA00FF;fill:#AA00FF;stroke-opacity:0.7;fill-opacity:0.7;}
*[layerid="9"] {stroke:#6464FF;fill:#6464FF;}
*[layerid="10"] {stroke:#FF00FF;fill:#FF00FF;}
*[layerid="11"] {stroke:#C0C0C0;fill:#C0C0C0;}
*[layerid="12"] {stroke:#FFFFFF;fill:#FFFFFF;}
*[layerid="13"] {stroke:#33CC99;fill:#33CC99;}
*[layerid="14"] {stroke:#5555FF;fill:#5555FF;}
*[layerid="15"] {stroke:#F022F0;fill:#F022F0;}
*[layerid="19"] {stroke:#66CCFF;fill:#66CCFF;}
*[layerid="21"] {stroke:#999966;fill:#999966;}
*[layerid="22"] {stroke:#008000;fill:#008000;}
*[layerid="23"] {stroke:#00FF00;fill:#00FF00;}
*[layerid="24"] {stroke:#BC8E00;fill:#BC8E00;}
*[layerid="25"] {stroke:#70DBFA;fill:#70DBFA;}
*[layerid="26"] {stroke:#00CC66;fill:#00CC66;}
*[layerid="27"] {stroke:#9966FF;fill:#9966FF;}
*[layerid="28"] {stroke:#800080;fill:#800080;}
*[layerid="29"] {stroke:#008080;fill:#008080;}
*[layerid="30"] {stroke:#15935F;fill:#15935F;}
*[layerid="31"] {stroke:#000080;fill:#000080;}
*[layerid="32"] {stroke:#00B400;fill:#00B400;}
*[layerid="33"] {stroke:#2E4756;fill:#2E4756;}
*[layerid="34"] {stroke:#99842F;fill:#99842F;}
*[layerid="35"] {stroke:#FFFFAA;fill:#FFFFAA;}
*[layerid="36"] {stroke:#99842F;fill:#99842F;}
*[layerid="37"] {stroke:#2E4756;fill:#2E4756;}
*[layerid="38"] {stroke:#3535FF;fill:#3535FF;}
*[layerid="39"] {stroke:#8000BC;fill:#8000BC;}
*[layerid="40"] {stroke:#43AE5F;fill:#43AE5F;}
*[layerid="41"] {stroke:#C3ECCE;fill:#C3ECCE;}
*[layerid="42"] {stroke:#728978;fill:#728978;}
*[layerid="43"] {stroke:#39503F;fill:#39503F;}
*[layerid="44"] {stroke:#0C715D;fill:#0C715D;}
*[layerid="45"] {stroke:#5A8A80;fill:#5A8A80;}
*[layerid="46"] {stroke:#2B937E;fill:#2B937E;}
*[layerid="47"] {stroke:#23999D;fill:#23999D;}
*[layerid="48"] {stroke:#45B4E3;fill:#45B4E3;}
*[layerid="49"] {stroke:#215DA1;fill:#215DA1;}
*[layerid="50"] {stroke:#4564D7;fill:#4564D7;}
*[layerid="51"] {stroke:#6969E9;fill:#6969E9;}
*[layerid="52"] {stroke:#9069E9;fill:#9069E9;}
*[layerid="99"] {stroke:#00CCCC;fill:#00CCCC;stroke-opacity:0.6;fill-opacity:0.6;}
*[layerid="100"] {stroke:#CC9999;fill:#CC9999;}
*[layerid="101"] {stroke:#66FFCC;fill:#66FFCC;}
*[layerid="Hole"] {stroke:#222222;fill:#222222;}
*[layerid="DRCError"] {stroke:#FAD609;fill:#FAD609;}
*[fill="none"] {fill: none;}
*[stroke="none"] {stroke: none;}
path, polyline, polygon, line {stroke-linecap:round;}
g[c_partid="part_pad"][layerid="1"] ellipse:not([c_etype="pad_outer"]) {fill:#FF0000;}
g[c_partid="part_pad"][layerid="1"] polygon:not([c_etype="pad_outer"]) {fill:#FF0000;}
g[c_partid="part_pad"][layerid="1"] polyline:not([c_etype="pad_outer"]) {stroke:#FF0000;}
g[c_partid="part_pad"][layerid="2"] ellipse:not([c_etype="pad_outer"]) {fill:#0000FF;}
g[c_partid="part_pad"][layerid="2"] polygon:not([c_etype="pad_outer"]) {fill:#0000FF;}
g[c_partid="part_pad"][layerid="2"] polyline:not([c_etype="pad_outer"]) {stroke:#0000FF;}
g[c_partid="part_pad"][layerid="11"] ellipse:not([c_etype="pad_outer"]) {fill:#C0C0C0;}
g[c_partid="part_pad"][layerid="11"] polygon:not([c_etype="pad_outer"]) {fill:#C0C0C0;}
g[c_partid="part_pad"][layerid="11"] polyline:not([c_etype="pad_outer"]) {stroke:#C0C0C0;}
g[c_partid="part_pad"][layerid="11"] circle {fill:#222222;}
g[c_partid="part_pad"][layerid="11"] > polyline:nth-of-type(2) {stroke:#222222;}
g[c_partid="part_pad"][layerid="11"][c_shape="ELLIPSE"]  polyline:nth-last-of-type(1) {stroke:#222222;}
g[c_partid="part_pad"][layerid="11"][c_shape="RECT"]  polyline:nth-last-of-type(1) {stroke:#222222;}
g[c_partid="part_pad"][layerid="11"][c_shape="POLYGON"]  polyline:nth-last-of-type(1) {stroke:#222222;}
g[c_partid="part_via"] > * + circle, #gCurParts g[c_partid="part_via"] > * + circle {fill:#222222;}
g[c_partid="part_pad"] > polygon[c_etype="pad_outer"], #gCurParts g[c_partid="part_pad"] > polygon[c_etype="pad_outer"] {stroke-linejoin: round;stroke-miterlimit: 100;}
g[c_partid="part_hole"] > circle {fill: #222222;}path, polyline, polygon {stroke-linejoin:round;}
rect, circle, ellipse, polyline, line, polygon, path {shape-rendering:crispEdges;}
</style>
<rect x="4020" y="3024.5" width="260" height="220" fill="#000000" stroke="none"/><path d="M 4184.46807 3182.55026 L 4184.315 3182.58071 4184.16193 3182.55026 4184.03216 3182.46355 4181.25416 3179.68555 4181.16745 3179.55578 4181.137 3179.40271 4181.137 3156.76165 4181.1059 3156.44584 4181.01951 3156.16106 4180.87922 3155.89861 4180.67791 3155.6533 4173.82145 3148.79684 4173.73474 3148.66707 4173.70429 3148.514 4173.73474 3148.36093 4173.82145 3148.23116 4184.03216 3138.02045 4184.16193 3137.93374 4184.315 3137.90329 4184.46807 3137.93374 4184.59784 3138.02045 4184.68455 3138.15022 4184.715 3138.30329 4184.715 3182.18071 4184.68455 3182.33378 4184.59784 3182.46355 4184.46807 3182.55026 Z " stroke-width="0" layerid="2" attachedcopperid="gge7069" c_shapetype="line" id="gge7069_0" class=""></path><path d="M 4080.00722 3213.47987 L 4078.5221 3213.44172 4077.05812 3213.32972 4075.60169 3213.14372 4074.15656 3212.88418 4072.72642 3212.55178 4071.31496 3212.14738 4069.92579 3211.672 4068.56248 3211.12688 4067.22853 3210.5134 4065.92737 3209.83315 4064.66232 3209.08787 4063.43665 3208.27947 4062.2535 3207.41003 4061.11591 3206.48178 4060.02679 3205.4971 4058.98894 3204.45853 4058.00502 3203.36872 4057.07757 3202.23047 4056.20895 3201.04671 4055.40141 3199.82048 4054.65701 3198.55492 4053.97767 3197.25327 4053.36513 3195.9189 4052.82096 3194.55521 4052.34655 3193.1657 4051.94314 3191.75396 4051.61174 3190.32359 4051.35322 3188.87827 4051.16823 3187.42172 4051.05725 3185.95766 4051.02 3184.48264 4051.02 3084.51736 4051.05828 3083.0221 4051.17028 3081.55812 4051.35628 3080.10169 4051.61582 3078.65656 4051.94822 3077.22642 4052.35262 3075.81496 4052.828 3074.42579 4053.37312 3073.06248 4053.9866 3071.72853 4054.66685 3070.42737 4055.41213 3069.16232 4056.22053 3067.93665 4057.08997 3066.7535 4058.01822 3065.61591 4059.0029 3064.52679 4060.04147 3063.48894 4061.13128 3062.50502 4062.26953 3061.57757 4063.45329 3060.70895 4064.67952 3059.90141 4065.94508 3059.15701 4067.24673 3058.47767 4068.5811 3057.86513 4069.94479 3057.32096 4071.3343 3056.84655 4072.74604 3056.44314 4074.17641 3056.11174 4075.62173 3055.85322 4077.07828 3055.66823 4078.54234 3055.55725 4080.01736 3055.52 4219.98264 3055.52 4221.4779 3055.55828 4222.94188 3055.67028 4224.39831 3055.85628 4225.84344 3056.11582 4227.27358 3056.44822 4228.68504 3056.85262 4230.07421 3057.328 4231.43752 3057.87312 4232.77147 3058.4866 4234.07263 3059.16685 4235.33768 3059.91213 4236.56335 3060.72053 4237.7465 3061.58997 4238.88409 3062.51822 4239.97321 3063.5029 4241.01106 3064.54147 4241.99498 3065.63128 4242.92243 3066.76953 4243.79105 3067.95329 4244.59859 3069.17952 4245.34299 3070.44508 4246.02233 3071.74673 4246.63487 3073.0811 4247.17904 3074.44479 4247.65345 3075.8343 4248.05686 3077.24604 4248.38826 3078.67641 4248.64678 3080.12173 4248.83177 3081.57828 4248.94275 3083.04234 4248.98 3084.51736 4248.98 3184.48264 4248.94172 3185.9779 4248.82972 3187.44188 4248.64372 3188.89831 4248.38418 3190.34344 4248.05178 3191.77358 4247.64738 3193.18504 4247.172 3194.57421 4246.62688 3195.93752 4246.0134 3197.27147 4245.33315 3198.57263 4244.58787 3199.83768 4243.77947 3201.06335 4242.91003 3202.2465 4241.98178 3203.38409 4240.9971 3204.47321 4239.95853 3205.51106 4238.86872 3206.49498 4237.73047 3207.42243 4236.54671 3208.29105 4235.32048 3209.09859 4234.05492 3209.84299 4232.75327 3210.52233 4231.4189 3211.13487 4230.05521 3211.67904 4228.6657 3212.15345 4227.25396 3212.55686 4225.82359 3212.88826 4224.37827 3213.14678 4222.92172 3213.33177 4221.45766 3213.44275 4219.98264 3213.48 4080.01736 3213.48 4080.00722 3213.47987 Z M 4209.09503 3206.73704 L 4209.47172 3206.6888 4209.83485 3206.57759 4210.17395 3206.40662 4210.47929 3206.1808 4210.74206 3205.90662 4210.92971 3205.62899 4211.03884 3205.52042 4211.1809 3205.46111 4211.33484 3205.45984 4211.47786 3205.5168 4211.58877 3205.62355 4211.80055 3205.92601 4212.07399 3206.19945 4212.39076 3206.42125 4212.74124 3206.58468 4213.11477 3206.68477 4213.5 3206.71847 4213.88523 3206.68477 4214.25876 3206.58468 4214.60924 3206.42125 4214.92601 3206.19945 4215.19945 3205.92601 4215.42125 3205.60924 4215.58468 3205.25876 4215.68477 3204.88523 4215.71847 3204.5 4215.68477 3204.11477 4215.58468 3203.74124 4215.42125 3203.39076 4215.19945 3203.07399 4214.92601 3202.80055 4214.60924 3202.57875 4214.25876 3202.41532 4213.88523 3202.31523 4213.56956 3202.28761 4213.43538 3202.25166 4213.32158 3202.17198 4212.0887 3200.93909 4211.84339 3200.73778 4211.58094 3200.59749 4211.29616 3200.5111 4210.98035 3200.48 4190.29529 3200.48 4190.14222 3200.44955 4190.01245 3200.36284 4172.63716 3182.98755 4172.55045 3182.85778 4172.52 3182.70471 4172.52 3153.07965 4172.48918 3152.76675 4172.50643 3152.60518 4172.58652 3152.46381 4172.71623 3152.36595 4172.87417 3152.32776 4173.03426 3152.35554 4173.1701 3152.4447 4177.97984 3157.25445 4178.06655 3157.38422 4178.097 3157.53729 4178.097 3180.17835 4178.1281 3180.49416 4178.21449 3180.77894 4178.35478 3181.04139 4178.55609 3181.2867 4182.66298 3185.39358 4182.74266 3185.50738 4182.77861 3185.64156 4182.80623 3185.95723 4182.90632 3186.33076 4183.06975 3186.68124 4183.29155 3186.99801 4183.56499 3187.27145 4183.88176 3187.49325 4184.23224 3187.65668 4184.60577 3187.75677 4184.991 3187.79047 4185.37623 3187.75677 4185.67139 3187.67768 4185.82279 3187.66693 4185.96731 3187.71336 4186.08412 3187.8103 4186.23709 3187.9967 4189.8403 3191.59991 4190.08561 3191.80122 4190.34806 3191.94151 4190.63284 3192.0279 4190.81812 3192.06964 4190.92994 3192.14839 4191.01999 3192.23845 4191.33676 3192.46025 4191.68724 3192.62368 4192.06077 3192.72377 4192.446 3192.75747 4192.83123 3192.72377 4193.20476 3192.62368 4193.55524 3192.46025 4193.73531 3192.36361 4193.8737 3192.3515 4194.00789 3192.38746 4194.43876 3192.68925 4194.78924 3192.85268 4195.16277 3192.95277 4195.548 3192.98647 4195.93323 3192.95277 4196.30676 3192.85268 4196.65724 3192.68925 4196.85 3192.55428 4196.99854 3192.49021 4197.16031 3192.49021 4197.30886 3192.55428 4197.48876 3192.68025 4197.83924 3192.84368 4198.21277 3192.94377 4198.598 3192.97747 4198.98323 3192.94377 4199.35676 3192.84368 4199.70724 3192.68025 4200.02401 3192.45845 4200.29745 3192.18501 4200.51925 3191.86824 4200.68268 3191.51776 4200.78277 3191.14423 4200.82533 3190.93452 4200.90501 3190.82072 4201.01881 3190.74104 4201.15299 3190.70509 4201.38523 3190.68477 4201.75876 3190.58468 4202.10924 3190.42125 4202.42601 3190.19945 4202.69945 3189.92601 4202.92125 3189.60924 4203.08468 3189.25876 4203.18477 3188.88523 4203.21847 3188.5 4203.18477 3188.11477 4203.08468 3187.74124 4202.92125 3187.39076 4202.69945 3187.07399 4202.63716 3187.0117 4202.55045 3186.88193 4202.52 3186.72886 4202.52 3109.42 4202.55045 3109.26693 4202.63716 3109.13716 4202.76693 3109.05045 4202.92 3109.02 4206.48035 3109.02 4206.79616 3108.9889 4207.08094 3108.90251 4207.34339 3108.76222 4207.5887 3108.56091 4209.82158 3106.32802 4209.93538 3106.24834 4210.06956 3106.21239 4210.38523 3106.18477 4210.75876 3106.08468 4211.10924 3105.92125 4211.42601 3105.69945 4211.69945 3105.42601 4211.92125 3105.10924 4212.08468 3104.75876 4212.18477 3104.38523 4212.21847 3104 4212.18477 3103.61477 4212.08468 3103.24124 4211.92125 3102.89076 4211.69945 3102.57399 4211.42601 3102.30055 4211.10924 3102.07875 4210.75876 3101.91532 4210.38523 3101.81523 4210 3101.78153 4209.61477 3101.81523 4209.24124 3101.91532 4208.89076 3102.07875 4208.57399 3102.30055 4208.30055 3102.57399 4208.07875 3102.89076 4207.91532 3103.24124 4207.81523 3103.61477 4207.78761 3103.93044 4207.75166 3104.06462 4207.67198 3104.17842 4205.98755 3105.86284 4205.85778 3105.94955 4205.70471 3105.98 4202.77114 3105.98 4202.61807 3105.94955 4202.4883 3105.86284 4202.42601 3105.80055 4202.10924 3105.57875 4201.75876 3105.41532 4201.38523 3105.31523 4201 3105.28153 4200.47032 3105.3242 4200.33247 3105.28142 4200.21877 3105.1925 4200.14404 3105.06902 4200.118 3104.92705 4200.118 3095.21465 4200.0869 3094.89884 4200.00051 3094.61406 4199.86022 3094.35161 4199.65891 3094.1063 4197.79402 3092.24142 4197.71434 3092.12762 4197.67839 3091.99344 4197.65077 3091.67777 4197.55068 3091.30424 4197.38725 3090.95376 4197.16545 3090.63699 4196.89201 3090.36355 4196.57524 3090.14175 4196.22476 3089.97832 4195.85123 3089.87823 4195.466 3089.84453 4195.08077 3089.87823 4194.70724 3089.97832 4194.35676 3090.14175 4194.03999 3090.36355 4193.76655 3090.63699 4193.54475 3090.95376 4193.38132 3091.30424 4193.28123 3091.67777 4193.24753 3092.063 4193.28123 3092.44823 4193.38132 3092.82176 4193.54475 3093.17224 4193.76655 3093.48901 4194.03999 3093.76245 4194.35676 3093.98425 4194.70724 3094.14768 4195.08077 3094.24777 4195.39644 3094.27539 4195.53062 3094.31134 4195.64442 3094.39102 4196.96084 3095.70745 4197.04755 3095.83722 4197.078 3095.99029 4197.078 3101.33308 4197.0462 3101.48937 4196.95586 3101.62081 4196.82135 3101.70651 4196.66404 3101.73283 4196.50895 3101.6956 4196.30676 3101.60132 4195.93323 3101.50123 4195.548 3101.46753 4195.16277 3101.50123 4194.78924 3101.60132 4194.43876 3101.76475 4194.12199 3101.98655 4193.84855 3102.25999 4193.62675 3102.57676 4193.46332 3102.92724 4193.36323 3103.30077 4193.32953 3103.686 4193.36323 3104.07123 4193.46332 3104.44476 4193.62675 3104.79524 4193.84855 3105.11201 4193.91084 3105.1743 4193.99755 3105.30407 4194.028 3105.45714 4194.028 3174.47717 4194.00007 3174.62402 4193.92017 3174.75036 4193.79948 3174.83855 4193.65483 3174.87627 4193.50644 3174.85825 4193.37502 3174.78701 4193.26428 3174.69659 4192.90281 3174.4879 4192.51256 3174.3399 4192.10361 3174.25641 4191.68657 3174.2396 4191.27223 3174.28991 4190.87133 3174.40604 4190.64948 3174.51131 4190.49411 3174.5496 4190.33616 3174.52393 4190.20091 3174.43841 4190.11001 3174.30671 4190.078 3174.14993 4190.078 3107.16502 4190.11548 3106.99597 4190.22088 3106.8586 4190.37447 3106.77865 4190.75876 3106.67568 4191.10924 3106.51225 4191.42601 3106.29045 4191.69945 3106.01701 4191.92125 3105.70024 4192.08468 3105.34976 4192.18477 3104.97623 4192.21847 3104.591 4192.18477 3104.20577 4192.08468 3103.83224 4191.92125 3103.48176 4191.69945 3103.16499 4191.42601 3102.89155 4191.10924 3102.66975 4190.75876 3102.50632 4190.38523 3102.40623 4190 3102.37253 4189.61477 3102.40623 4189.24124 3102.50632 4188.89076 3102.66975 4188.4889 3102.95663 4188.3612 3103.02373 4188.218 3103.04117 4188.07792 3103.00668 4187.95919 3102.92474 4187.66101 3102.62655 4187.34424 3102.40475 4186.99376 3102.24132 4186.62023 3102.14123 4186.235 3102.10753 4185.84977 3102.14123 4185.47624 3102.24132 4185.12576 3102.40475 4184.80899 3102.62655 4184.53555 3102.89999 4184.31375 3103.21676 4184.15032 3103.56724 4184.05023 3103.94077 4184.01653 3104.326 4184.05023 3104.71123 4184.15032 3105.08476 4184.31375 3105.43524 4184.53555 3105.75201 4184.59784 3105.8143 4184.68455 3105.94407 4184.715 3106.09714 4184.715 3130.00275 4184.68843 3130.1461 4184.61226 3130.2704 4184.4966 3130.35915 4184.35681 3130.40056 4183.808 3130.35053 4183.42277 3130.38423 4183.04924 3130.48432 4182.69876 3130.64775 4182.38199 3130.86955 4182.10855 3131.14299 4181.88675 3131.45976 4181.72332 3131.81024 4181.62323 3132.18377 4181.58953 3132.569 4181.62323 3132.95423 4181.72332 3133.32776 4181.88675 3133.67824 4182.10855 3133.99501 4182.17084 3134.0573 4182.25755 3134.18707 4182.288 3134.34014 4182.288 3135.29971 4182.25755 3135.45278 4182.17084 3135.58255 4170.87655 3146.87684 4170.74678 3146.96355 4170.59371 3146.994 4167.20718 3146.994 4167.10366 3146.98037 4166.82323 3146.90523 4166.438 3146.87153 4166.05277 3146.90523 4165.67924 3147.00532 4165.32876 3147.16875 4165.01199 3147.39055 4164.73855 3147.66399 4164.51675 3147.98076 4164.35332 3148.33124 4164.25323 3148.70477 4164.21953 3149.09 4164.25323 3149.47523 4164.35332 3149.84876 4164.51675 3150.19924 4164.73855 3150.51601 4165.01199 3150.78945 4165.32876 3151.01125 4165.67924 3151.17468 4166.05277 3151.27477 4166.438 3151.30847 4166.52693 3151.30069 4166.66532 3151.3128 4166.79122 3151.37151 4166.88945 3151.46974 4166.94816 3151.59564 4167.04893 3151.97172 4167.08854 3152.088 4167.10953 3152.23414 4167.07608 3152.37794 4166.99274 3152.49981 4166.69455 3152.79799 4166.47275 3153.11476 4166.30932 3153.46524 4166.20923 3153.83877 4166.17553 3154.224 4166.20923 3154.60923 4166.30932 3154.98276 4166.47275 3155.33324 4166.69455 3155.65001 4166.75284 3155.7083 4166.83955 3155.83807 4166.87 3155.99114 4166.87 3183.86035 4166.9011 3184.17616 4166.98749 3184.46094 4167.12778 3184.72339 4167.32909 3184.9687 4187.9213 3205.56091 4188.16661 3205.76222 4188.42906 3205.90251 4188.71384 3205.9889 4189.02965 3206.02 4207.19927 3206.02 4207.3405 3206.04576 4207.46354 3206.11973 4207.66858 3206.30019 4207.99197 3206.49931 4208.34435 3206.64091 4208.7156 3206.72092 4209.09503 3206.73704 Z M 4121.207 3182.09347 L 4121.59223 3182.05977 4121.96576 3181.95968 4122.31624 3181.79625 4122.63301 3181.57445 4122.81512 3181.39233 4122.89232 3181.33208 4123.03094 3181.27751 4123.29339 3181.13722 4123.5387 3180.93591 4166.46191 3138.0127 4166.66322 3137.76739 4166.80351 3137.50494 4166.8899 3137.22016 4166.921 3136.90435 4166.921 3101.51114 4166.95145 3101.35807 4167.03816 3101.2283 4167.10045 3101.16601 4167.32225 3100.84924 4167.48568 3100.49876 4167.58577 3100.12523 4167.61947 3099.74 4167.58577 3099.35477 4167.48568 3098.98124 4167.32225 3098.63076 4167.10045 3098.31399 4166.82701 3098.04055 4166.51024 3097.81875 4166.15976 3097.65532 4165.78623 3097.55523 4165.401 3097.52153 4165.01577 3097.55523 4164.64224 3097.65532 4164.29176 3097.81875 4163.97499 3098.04055 4163.70155 3098.31399 4163.47975 3098.63076 4163.31632 3098.98124 4163.21623 3099.35477 4163.18253 3099.74 4163.21623 3100.12523 4163.31632 3100.49876 4163.47975 3100.84924 4163.70155 3101.16601 4163.76384 3101.2283 4163.85055 3101.35807 4163.881 3101.51114 4163.881 3136.12871 4163.85055 3136.28178 4163.76384 3136.41155 4148.37984 3151.79555 4148.25007 3151.88226 4148.097 3151.91271 4147.94393 3151.88226 4147.81416 3151.79555 4147.72745 3151.66578 4147.697 3151.51271 4147.697 3119.38014 4147.72745 3119.22707 4147.81416 3119.0973 4147.87645 3119.03501 4148.09825 3118.71824 4148.26168 3118.36776 4148.36177 3117.99423 4148.39547 3117.609 4148.36177 3117.22377 4148.26168 3116.85024 4148.09825 3116.49976 4147.87645 3116.18299 4147.60301 3115.90955 4147.28624 3115.68775 4146.93576 3115.52432 4146.56223 3115.42423 4146.177 3115.39053 4145.79177 3115.42423 4145.41824 3115.52432 4145.06776 3115.68775 4144.75099 3115.90955 4144.47755 3116.18299 4144.25575 3116.49976 4144.16752 3116.68896 4144.07707 3116.81313 4143.94648 3116.89406 4143.79503 3116.91979 4143.64504 3116.88654 4143.51865 3116.79921 4143.4345 3116.67068 4143.405 3116.51991 4143.405 3078.87614 4143.43545 3078.72307 4143.52216 3078.5933 4143.58445 3078.53101 4143.80625 3078.21424 4143.96968 3077.86376 4144.06977 3077.49023 4144.10347 3077.105 4144.06977 3076.71977 4143.96968 3076.34624 4143.80625 3075.99576 4143.58445 3075.67899 4143.31101 3075.40555 4142.99424 3075.18375 4142.64376 3075.02032 4142.27023 3074.92023 4141.885 3074.88653 4141.49977 3074.92023 4141.12624 3075.02032 4140.77576 3075.18375 4140.3445 3075.48593 4140.21032 3075.52188 4140.07193 3075.50978 4139.94602 3075.45107 4139.61424 3075.21875 4139.26376 3075.05532 4138.89023 3074.95523 4138.505 3074.92153 4138.11977 3074.95523 4137.74624 3075.05532 4137.39576 3075.21875 4137.07899 3075.44055 4136.80555 3075.71399 4136.58375 3076.03076 4136.42032 3076.38124 4136.32023 3076.75477 4136.28653 3077.14 4136.32023 3077.52523 4136.42032 3077.89876 4136.58375 3078.24924 4136.80555 3078.56601 4136.86784 3078.6283 4136.95455 3078.75807 4136.985 3078.91114 4136.985 3134.00186 4136.95455 3134.15493 4136.86784 3134.2847 4136.80555 3134.34699 4136.58375 3134.66376 4136.42032 3135.01424 4136.32023 3135.38777 4136.28653 3135.773 4136.32023 3136.15823 4136.42032 3136.53176 4136.58375 3136.88224 4136.80555 3137.19901 4137.07899 3137.47245 4137.39576 3137.69425 4137.74624 3137.85768 4138.11977 3137.95777 4138.505 3137.99147 4138.89023 3137.95777 4139.26376 3137.85768 4139.61268 3137.69498 4139.97351 3137.43772 4140.12262 3137.37215 4140.2855 3137.37145 4140.43515 3137.43576 4140.77576 3137.67425 4141.12624 3137.83768 4141.49977 3137.93777 4141.885 3137.97147 4142.27023 3137.93777 4142.64376 3137.83768 4142.99424 3137.67425 4143.31101 3137.45245 4143.58445 3137.17901 4143.80625 3136.86224 4143.89448 3136.67304 4143.98493 3136.54887 4144.11552 3136.46794 4144.26697 3136.44221 4144.41696 3136.47546 4144.54335 3136.56279 4144.6275 3136.69132 4144.657 3136.84209 4144.657 3152.08971 4144.62655 3152.24278 4144.53984 3152.37255 4136.85142 3160.06098 4136.73762 3160.14066 4136.60344 3160.17661 4136.28777 3160.20423 4135.91424 3160.30432 4135.56376 3160.46775 4135.24699 3160.68955 4134.97355 3160.96299 4134.75175 3161.27976 4134.58832 3161.63024 4134.48823 3162.00377 4134.45453 3162.389 4134.48823 3162.77423 4134.58832 3163.14776 4134.75175 3163.49824 4134.97355 3163.81501 4135.24699 3164.08845 4135.35053 3164.16095 4135.46751 3164.28861 4135.51958 3164.45375 4135.49698 3164.62542 4135.40394 3164.77145 4122.44978 3177.72562 4122.31462 3177.81451 4122.1553 3177.84261 4121.59223 3177.69023 4121.207 3177.65653 4120.82177 3177.69023 4120.44824 3177.79032 4120.09776 3177.95375 4119.78099 3178.17555 4119.50755 3178.44899 4119.28575 3178.76576 4119.12232 3179.11624 4119.02223 3179.48977 4118.98853 3179.875 4119.02223 3180.26023 4119.12232 3180.63376 4119.28575 3180.98424 4119.50755 3181.30101 4119.78099 3181.57445 4120.09776 3181.79625 4120.44824 3181.95968 4120.82177 3182.05977 4121.207 3182.09347 Z M 4105.07754 3134.12 L 4105.32641 3134.09196 4105.54146 3134.01671 4105.73438 3133.89549 4105.89549 3133.73438 4106.01671 3133.54146 4106.09196 3133.32641 4106.12 3133.07754 4106.12 3126.92246 4106.09196 3126.67359 4106.01671 3126.45854 4105.89549 3126.26562 4105.73438 3126.10451 4105.55216 3125.99001 4105.44672 3125.89364 4105.38187 3125.76636 4105.36587 3125.62441 4105.40078 3125.4859 4105.48213 3125.36848 4108.23291 3122.6177 4108.43422 3122.37239 4108.57451 3122.10994 4108.6609 3121.82516 4108.692 3121.50935 4108.692 3120.79314 4108.72245 3120.64007 4108.80916 3120.5103 4108.87145 3120.44801 4109.09325 3120.13124 4109.25668 3119.78076 4109.35677 3119.40723 4109.39047 3119.022 4109.35677 3118.63677 4109.25668 3118.26324 4109.09325 3117.91276 4108.87145 3117.59599 4108.59801 3117.32255 4108.28124 3117.10075 4107.93076 3116.93732 4107.55723 3116.83723 4107.172 3116.80353 4106.78677 3116.83723 4106.41324 3116.93732 4106.06276 3117.10075 4105.74599 3117.32255 4105.57808 3117.44379 4105.41799 3117.47157 4105.26005 3117.43338 4105.13034 3117.33553 4104.91267 3117.08733 4104.50757 3116.73207 4104.05957 3116.43272 4103.57633 3116.19441 4103.06611 3116.02121 4102.53766 3115.9161 4102 3115.88086 4101.46234 3115.9161 4100.93389 3116.02121 4100.42367 3116.19441 4099.94043 3116.43272 4099.49243 3116.73207 4099.08733 3117.08733 4098.73207 3117.49243 4098.43272 3117.94043 4098.19441 3118.42367 4098.02121 3118.93389 4097.9161 3119.46234 4097.88086 3120 4097.9161 3120.53766 4098.02121 3121.06611 4098.19441 3121.57633 4098.43272 3122.05957 4098.73207 3122.50757 4099.00278 3122.81626 4099.07939 3122.9473 4099.10166 3123.09745 4099.06639 3123.24508 4098.97865 3123.36895 4098.85107 3123.4512 4098.70204 3123.48 4095.29796 3123.48 4095.14893 3123.4512 4095.02135 3123.36895 4094.93361 3123.24508 4094.89834 3123.09745 4094.92061 3122.9473 4094.99722 3122.81626 4095.26793 3122.50757 4095.56728 3122.05957 4095.80559 3121.57633 4095.97879 3121.06611 4096.0839 3120.53766 4096.11914 3120 4096.0839 3119.46234 4095.97879 3118.93389 4095.80559 3118.42367 4095.56728 3117.94043 4095.26793 3117.49243 4094.91267 3117.08733 4094.50757 3116.73207 4094.05957 3116.43272 4093.57633 3116.19441 4093.06611 3116.02121 4092.53766 3115.9161 4092 3115.88086 4091.46234 3115.9161 4090.93389 3116.02121 4090.42367 3116.19441 4089.94043 3116.43272 4089.49243 3116.73207 4089.08733 3117.08733 4088.73207 3117.49243 4088.43272 3117.94043 4088.19441 3118.42367 4088.02121 3118.93389 4087.9161 3119.46234 4087.88086 3120 4087.9161 3120.53766 4088.02121 3121.06611 4088.19441 3121.57633 4088.43272 3122.05957 4088.73207 3122.50757 4089.00278 3122.81626 4089.07939 3122.9473 4089.10166 3123.09745 4089.06639 3123.24508 4088.97865 3123.36895 4088.85107 3123.4512 4088.70204 3123.48 4087.01965 3123.48 4086.70384 3123.5111 4086.41906 3123.59749 4086.15661 3123.73778 4085.9113 3123.93909 4083.81168 3126.03871 4083.68994 3126.122 4083.54629 3126.15549 4083.40026 3126.13464 4083.06611 3126.02121 4082.53766 3125.9161 4082 3125.88086 4081.46234 3125.9161 4080.93389 3126.02121 4080.42367 3126.19441 4079.94043 3126.43272 4079.49243 3126.73207 4079.08733 3127.08733 4078.73207 3127.49243 4078.43272 3127.94043 4078.19441 3128.42367 4078.02121 3128.93389 4077.9161 3129.46234 4077.88086 3130 4077.9161 3130.53766 4078.02121 3131.06611 4078.19441 3131.57633 4078.43272 3132.05957 4078.73207 3132.50757 4079.08733 3132.91267 4079.49243 3133.26793 4079.94043 3133.56728 4080.42367 3133.80559 4080.93389 3133.97879 4081.46234 3134.0839 4082 3134.11914 4082.53766 3134.0839 4083.06611 3133.97879 4083.57633 3133.80559 4084.05957 3133.56728 4084.50757 3133.26793 4084.91267 3132.91267 4085.26793 3132.50757 4085.56728 3132.05957 4085.80559 3131.57633 4085.97879 3131.06611 4086.0839 3130.53766 4086.11914 3130 4086.0839 3129.46234 4085.97879 3128.93389 4085.86536 3128.59974 4085.84451 3128.45371 4085.878 3128.31006 4085.96129 3128.18832 4087.51245 3126.63716 4087.64222 3126.55045 4087.79529 3126.52 4088.70204 3126.52 4088.85107 3126.5488 4088.97865 3126.63105 4089.06639 3126.75492 4089.10166 3126.90255 4089.07939 3127.0527 4089.00278 3127.18374 4088.73207 3127.49243 4088.43272 3127.94043 4088.19441 3128.42367 4088.02121 3128.93389 4087.9161 3129.46234 4087.88086 3130 4087.9161 3130.53766 4088.02121 3131.06611 4088.19441 3131.57633 4088.43272 3132.05957 4088.73207 3132.50757 4089.08733 3132.91267 4089.49243 3133.26793 4089.94043 3133.56728 4090.42367 3133.80559 4090.93389 3133.97879 4091.46234 3134.0839 4092 3134.11914 4092.53766 3134.0839 4093.06611 3133.97879 4093.57633 3133.80559 4094.05957 3133.56728 4094.50757 3133.26793 4094.91267 3132.91267 4095.26793 3132.50757 4095.56728 3132.05957 4095.80559 3131.57633 4095.97879 3131.06611 4096.0839 3130.53766 4096.11914 3130 4096.0839 3129.46234 4095.97879 3128.93389 4095.80559 3128.42367 4095.56728 3127.94043 4095.26793 3127.49243 4094.99722 3127.18374 4094.92061 3127.0527 4094.89834 3126.90255 4094.93361 3126.75492 4095.02135 3126.63105 4095.14893 3126.5488 4095.29796 3126.52 4097.48 3126.52 4097.63307 3126.55045 4097.76284 3126.63716 4097.84955 3126.76693 4097.88 3126.92 4097.88 3133.07754 4097.90804 3133.32641 4097.98329 3133.54146 4098.10451 3133.73438 4098.26562 3133.89549 4098.45854 3134.01671 4098.67359 3134.09196 4098.92246 3134.12 4105.07754 3134.12 Z M 4132.811 3146.99447 L 4133.19623 3146.96077 4133.56976 3146.86068 4133.92024 3146.69725 4134.23701 3146.47545 4134.51045 3146.20201 4134.73225 3145.88524 4134.89568 3145.53476 4134.99577 3145.16123 4135.02947 3144.776 4134.99577 3144.39077 4134.89568 3144.01724 4134.73225 3143.66676 4134.51045 3143.34999 4134.44816 3143.2877 4134.36145 3143.15793 4134.331 3143.00486 4134.331 3074.41114 4134.36145 3074.25807 4134.44816 3074.1283 4134.51045 3074.06601 4134.73225 3073.74924 4134.89568 3073.39876 4134.99577 3073.02523 4135.02947 3072.64 4134.99577 3072.25477 4134.89568 3071.88124 4134.73225 3071.53076 4134.51045 3071.21399 4134.23701 3070.94055 4133.92024 3070.71875 4133.56976 3070.55532 4133.19623 3070.45523 4132.811 3070.42153 4132.42577 3070.45523 4132.05224 3070.55532 4131.70176 3070.71875 4131.38499 3070.94055 4131.11155 3071.21399 4130.88975 3071.53076 4130.72632 3071.88124 4130.62623 3072.25477 4130.59253 3072.64 4130.62623 3073.02523 4130.72632 3073.39876 4130.88975 3073.74924 4131.11155 3074.06601 4131.17384 3074.1283 4131.26055 3074.25807 4131.291 3074.41114 4131.291 3143.00486 4131.26055 3143.15793 4131.17384 3143.2877 4131.11155 3143.34999 4130.88975 3143.66676 4130.72632 3144.01724 4130.62623 3144.39077 4130.59253 3144.776 4130.62623 3145.16123 4130.72632 3145.53476 4130.88975 3145.88524 4131.11155 3146.20201 4131.38499 3146.47545 4131.70176 3146.69725 4132.05224 3146.86068 4132.42577 3146.96077 4132.811 3146.99447 Z M 4228.10457 3179.4224 L 4228.52161 3179.40559 4228.93056 3179.3221 4229.32081 3179.1741 4229.68228 3178.96541 4230.00558 3178.70144 4230.28235 3178.38902 4230.50543 3178.03626 4230.66903 3177.65228 4230.76891 3177.24703 4230.8025 3176.831 4230.76891 3176.41497 4230.66903 3176.00972 4230.50543 3175.62574 4230.28235 3175.27298 4230.00558 3174.96056 4229.68228 3174.69659 4229.32081 3174.4879 4228.93056 3174.3399 4228.52161 3174.25641 4228.10457 3174.2396 4227.69023 3174.28991 4227.28933 3174.40604 4226.91225 3174.58496 4226.56875 3174.82206 4226.26774 3175.11119 4226.017 3175.44486 4225.82303 3175.81444 4225.69086 3176.21034 4225.62391 3176.62231 4225.62391 3177.03969 4225.69086 3177.45166 4225.82303 3177.84756 4226.017 3178.21714 4226.26774 3178.55081 4226.56875 3178.83994 4226.91225 3179.07704 4227.28933 3179.25596 4227.69023 3179.37209 4228.10457 3179.4224 Z M 4083.8 3116.30471 L 4083.8 3118.2 4085.69529 3118.2 4085.56728 3117.94043 4085.26793 3117.49243 4084.91267 3117.08733 4084.50757 3116.73207 4084.05957 3116.43272 4083.8 3116.30471 Z M 4080.2 3118.2 L 4080.2 3116.30471 4079.94043 3116.43272 4079.49243 3116.73207 4079.08733 3117.08733 4078.73207 3117.49243 4078.43272 3117.94043 4078.30471 3118.2 4080.2 3118.2 Z M 4083.8 3121.8 L 4083.8 3123.69529 4084.05957 3123.56728 4084.50757 3123.26793 4084.91267 3122.91267 4085.26793 3122.50757 4085.56728 3122.05957 4085.69529 3121.8 4083.8 3121.8 Z M 4080.2 3123.69529 L 4080.2 3121.8 4078.30471 3121.8 4078.43272 3122.05957 4078.73207 3122.50757 4079.08733 3122.91267 4079.49243 3123.26793 4079.94043 3123.56728 4080.2 3123.69529 Z " stroke-width="0" layerid="2" attachedcopperid="gge7069" c_shapetype="line" id="gge7069_1" class=""></path><polyline points="4132.811 3072.64 4132.811 3144.776" stroke-width="1"  stroke-linecap="round" fill="none" layerid="2" net="LED7" id="gge14425" locked="0" /><polyline points="4121.207 3179.875 4122.45 3179.875 4165.401 3136.924 4165.401 3099.74" stroke-width="1"  stroke-linecap="round" fill="none" layerid="2" net="Q1_2" id="gge14473" locked="0" /><polyline points="4198.598 3190.759 4198.598 3095.195 4195.466 3092.063" stroke-width="1"  stroke-linecap="round" fill="none" layerid="2" net="OLED1_4" id="gge14257" locked="0" /><polyline points="4169.13 3151.19 4171 3153.06 4171 3183.5 4189.5 3202 4211 3202 4213.5 3204.5" stroke-width="1"  stroke-linecap="round" fill="none" layerid="2" net="DC" id="gge14728" locked="0" /><polyline points="4168.39 3154.22 4168.39 3183.88 4189.01 3204.5 4209 3204.5" stroke-width="1"  stroke-linecap="round" fill="none" layerid="2" net="CS" id="gge14725" locked="0" /><polyline points="4201 3107.5 4206.5 3107.5 4210 3104" stroke-width="1"  stroke-linecap="round" fill="none" layerid="2" net="VIN" id="gge14143" locked="0" /><polyline points="4201 3107.5 4201 3188.5" stroke-width="1"  stroke-linecap="round" fill="none" layerid="2" net="VIN" id="gge14137" locked="0" /><polyline points="4141.885 3135.753 4141.885 3077.105" stroke-width="1"  stroke-linecap="round" fill="none" layerid="2" net="LED5" id="gge14458" locked="0" /><polyline points="4138.505 3077.14 4138.505 3135.773" stroke-width="1"  stroke-linecap="round" fill="none" layerid="2" net="LED6" id="gge14443" locked="0" /><polyline points="4195.548 3190.768 4195.548 3103.686" stroke-width="1"  stroke-linecap="round" fill="none" layerid="2" net="OLED1_3" id="gge14275" locked="0" /><polyline points="4190.038 3186.386 4190.038 3179.048 4188.558 3177.568 4188.558 3106.033 4190 3104.591" stroke-width="1"  stroke-linecap="round" fill="none" layerid="2" net="OLED1_1" id="gge14221" locked="0" /><polyline points="4192.446 3190.539 4190.929 3190.539 4187.298 3186.908 4187.298 3184.616 4186.235 3183.553 4186.235 3104.326" stroke-width="1"  stroke-linecap="round" fill="none" layerid="2" net="OLED1_2" id="gge14200" locked="0" /><polyline points="4171.389 3148.514 4183.808 3136.095 4183.808 3132.569" stroke-width="1"  stroke-linecap="round" fill="none" layerid="2" net="RES" id="gge14110" locked="0" /><polyline points="4166.438 3149.09 4167.014 3148.514 4171.389 3148.514" stroke-width="1"  stroke-linecap="round" fill="none" layerid="2" net="RES" id="gge14107" locked="0" /><polyline points="4171.389 3148.514 4179.617 3156.742 4179.617 3180.198 4184.991 3185.572" stroke-width="1"  stroke-linecap="round" fill="none" layerid="2" net="RES" id="gge14104" locked="0" /><polyline points="4136.673 3162.389 4146.177 3152.885 4146.177 3117.609" stroke-width="1"  stroke-linecap="round" fill="none" layerid="2" net="U1_18" id="gge14083" locked="0" /><polyline points="4082 3130 4087 3125 4103.701 3125 4107.172 3121.529 4107.172 3119.022" stroke-width="1"  stroke-linecap="round" fill="none" layerid="2" net="RST" id="gge14071" locked="0" /><polyline points="4077 3135 4077 3115 4107 3115 4107 3135 4077 3135 4096.167 3135" stroke-width="0.8"  stroke-linecap="round" fill="none" layerid="4" net="" id="gge3627" locked="0" /><g c_partid="part_pcbtext" c_etype="" c_origin="4093,3107" c_rotation="0" c_mirror="1" id="gge3615" locked="0" layerid="4" c_shapetype="group" display="none"><path c_fontsize="4.5" c_fontfamily="" c_text="HDR-F-2.54_2x3" d="M 4093 3102.46 L 4093 3106.75 M 4090.14 3102.46 L 4090.14 3106.75 M 4093 3104.5 L 4090.14 3104.5 M 4088.79 3102.46 L 4088.79 3106.75 M 4088.79 3102.46 L 4087.35 3102.46 L 4086.74 3102.66 L 4086.33 3103.07 L 4086.13 3103.48 L 4085.92 3104.1 L 4085.92 3105.12 L 4086.13 3105.73 L 4086.33 3106.14 L 4086.74 3106.55 L 4087.35 3106.75 L 4088.79 3106.75 M 4084.57 3102.46 L 4084.57 3106.75 M 4084.57 3102.46 L 4082.73 3102.46 L 4082.12 3102.66 L 4081.91 3102.87 L 4081.71 3103.28 L 4081.71 3103.69 L 4081.91 3104.1 L 4082.12 3104.3 L 4082.73 3104.5 L 4084.57 3104.5 M 4083.14 3104.5 L 4081.71 3106.75 M 4080.36 3104.91 L 4076.68 3104.91 M 4075.33 3102.46 L 4075.33 3106.75 M 4075.33 3102.46 L 4072.67 3102.46 M 4075.33 3104.5 L 4073.69 3104.5 M 4071.32 3104.91 L 4067.64 3104.91 M 4066.08 3103.48 L 4066.08 3103.28 L 4065.88 3102.87 L 4065.67 3102.66 L 4065.26 3102.46 L 4064.45 3102.46 L 4064.04 3102.66 L 4063.83 3102.87 L 4063.63 3103.28 L 4063.63 3103.69 L 4063.83 3104.1 L 4064.24 3104.71 L 4066.29 3106.75 L 4063.42 3106.75 M 4061.87 3105.73 L 4062.07 3105.94 L 4061.87 3106.14 L 4061.66 3105.94 L 4061.87 3105.73 M 4057.86 3102.46 L 4059.9 3102.46 L 4060.11 3104.3 L 4059.9 3104.1 L 4059.29 3103.89 L 4058.68 3103.89 L 4058.06 3104.1 L 4057.65 3104.5 L 4057.45 3105.12 L 4057.45 3105.53 L 4057.65 3106.14 L 4058.06 3106.55 L 4058.68 3106.75 L 4059.29 3106.75 L 4059.9 3106.55 L 4060.11 3106.35 L 4060.31 3105.94 M 4054.05 3102.46 L 4056.1 3105.32 L 4053.03 3105.32 M 4054.05 3102.46 L 4054.05 3106.75 M 4051.68 3108.19 L 4048 3108.19 M 4046.45 3103.48 L 4046.45 3103.28 L 4046.24 3102.87 L 4046.04 3102.66 L 4045.63 3102.46 L 4044.81 3102.46 L 4044.4 3102.66 L 4044.2 3102.87 L 4043.99 3103.28 L 4043.99 3103.69 L 4044.2 3104.1 L 4044.6 3104.71 L 4046.65 3106.75 L 4043.79 3106.75 M 4042.44 3103.89 L 4040.19 3106.75 M 4040.19 3103.89 L 4042.44 3106.75 M 4038.43 3102.46 L 4036.18 3102.46 L 4037.4 3104.1 L 4036.79 3104.1 L 4036.38 3104.3 L 4036.18 3104.5 L 4035.97 3105.12 L 4035.97 3105.53 L 4036.18 3106.14 L 4036.59 3106.55 L 4037.2 3106.75 L 4037.81 3106.75 L 4038.43 3106.55 L 4038.63 3106.35 L 4038.84 3105.94" fill="none"  stroke-width="0.6" c_note="note_name" /></g><g c_partid="part_pcbtext" c_etype="" c_origin="4093,3114" c_rotation="0" c_mirror="1" id="gge3621" locked="0" layerid="4" c_shapetype="group" display="none"><path c_fontsize="4.5" c_fontfamily="" c_text="H1" d="M 4093 3109.46 L 4093 3113.75 M 4090.14 3109.46 L 4090.14 3113.75 M 4093 3111.5 L 4090.14 3111.5 M 4088.79 3110.28 L 4088.38 3110.07 L 4087.76 3109.46 L 4087.76 3113.75" fill="none"  stroke-width="0.6" c_note="note_pre" /></g><path d="M 4112 3071.5 L 4112 3075.7424 L 4107.7576 3075.7424 L 4103.5151 3075.7424 L 4103.5151 3071.5 L 4103.5151 3067.2575 L 4107.7576 3067.2575 L 4112 3067.2575 L 4112 3071.5 M 4102.303 3067.8636 L 4102.303 3068.4697 L 4101.697 3068.4697 L 4101.0909 3068.4697 L 4101.0909 3069.0758 L 4101.0909 3069.6818 L 4100.4849 3069.6818 L 4099.8788 3069.6818 L 4099.8788 3068.4697 L 4099.8788 3067.2575 L 4101.0909 3067.2575 L 4102.303 3067.2575 L 4102.303 3067.8636 M 4097.4546 3067.8636 L 4097.4546 3068.4697 L 4098.0606 3068.4697 L 4098.6666 3068.4697 L 4098.6666 3069.0758 L 4098.6666 3069.6818 L 4097.4546 3069.6818 L 4096.2425 3069.6818 L 4096.2425 3069.0758 L 4096.2425 3068.4697 L 4095.6363 3068.4697 L 4095.0303 3068.4697 L 4095.0303 3069.0758 L 4095.0303 3069.6818 L 4093.8182 3069.6818 L 4092.6061 3069.6818 L 4092.6061 3070.2878 L 4092.6061 3070.8939 L 4093.2122 3070.8939 L 4093.8182 3070.8939 L 4093.8182 3071.5 L 4093.8182 3072.106 L 4094.4242 3072.106 L 4095.0303 3072.106 L 4095.0303 3072.7121 L 4095.0303 3073.3182 L 4096.2425 3073.3182 L 4097.4546 3073.3182 L 4097.4546 3072.7121 L 4097.4546 3072.106 L 4096.8485 3072.106 L 4096.2425 3072.106 L 4096.2425 3071.5 L 4096.2425 3070.8939 L 4097.4546 3070.8939 L 4098.6666 3070.8939 L 4098.6666 3071.5 L 4098.6666 3072.106 L 4099.2727 3072.106 L 4099.8788 3072.106 L 4099.8788 3071.5 L 4099.8788 3070.8939 L 4101.0909 3070.8939 L 4102.303 3070.8939 L 4102.303 3071.5 L 4102.303 3072.106 L 4101.697 3072.106 L 4101.0909 3072.106 L 4101.0909 3072.7121 L 4101.0909 3073.3182 L 4099.8788 3073.3182 L 4098.6666 3073.3182 L 4098.6666 3073.9242 L 4098.6666 3074.5302 L 4099.2727 3074.5302 L 4099.8788 3074.5302 L 4099.8788 3075.1363 L 4099.8788 3075.7424 L 4100.4849 3075.7424 L 4101.0909 3075.7424 L 4101.0909 3075.1363 L 4101.0909 3074.5302 L 4101.697 3074.5302 L 4102.303 3074.5302 L 4102.303 3075.1363 L 4102.303 3075.7424 L 4101.697 3075.7424 L 4101.0909 3075.7424 L 4101.0909 3076.3485 L 4101.0909 3076.9546 L 4101.697 3076.9546 L 4102.303 3076.9546 L 4102.303 3077.5606 L 4102.303 3078.1666 L 4102.9091 3078.1666 L 4103.5151 3078.1666 L 4103.5151 3077.5606 L 4103.5151 3076.9546 L 4105.3334 3076.9546 L 4107.1515 3076.9546 L 4107.1515 3077.5606 L 4107.1515 3078.1666 L 4107.7576 3078.1666 L 4108.3637 3078.1666 L 4108.3637 3077.5606 L 4108.3637 3076.9546 L 4108.9697 3076.9546 L 4109.5758 3076.9546 L 4109.5758 3077.5606 L 4109.5758 3078.1666 L 4108.9697 3078.1666 L 4108.3637 3078.1666 L 4108.3637 3078.7727 L 4108.3637 3079.3788 L 4109.5758 3079.3788 L 4110.7879 3079.3788 L 4110.7879 3078.7727 L 4110.7879 3078.1666 L 4111.3939 3078.1666 L 4112 3078.1666 L 4112 3078.7727 L 4112 3079.3788 L 4111.3939 3079.3788 L 4110.7879 3079.3788 L 4110.7879 3079.9848 L 4110.7879 3080.5909 L 4111.3939 3080.5909 L 4112 3080.5909 L 4112 3081.197 L 4112 3081.803 L 4111.3939 3081.803 L 4110.7879 3081.803 L 4110.7879 3082.409 L 4110.7879 3083.0151 L 4111.3939 3083.0151 L 4112 3083.0151 L 4112 3083.6212 L 4112 3084.2272 L 4111.3939 3084.2272 L 4110.7879 3084.2272 L 4110.7879 3084.8334 L 4110.7879 3085.4394 L 4111.3939 3085.4394 L 4112 3085.4394 L 4112 3086.6514 L 4112 3087.8636 L 4111.3939 3087.8636 L 4110.7879 3087.8636 L 4110.7879 3090.8939 L 4110.7879 3093.9242 L 4111.3939 3093.9242 L 4112 3093.9242 L 4112 3094.5302 L 4112 3095.1363 L 4111.3939 3095.1363 L 4110.7879 3095.1363 L 4110.7879 3095.7424 L 4110.7879 3096.3484 L 4111.3939 3096.3484 L 4112 3096.3484 L 4112 3096.9546 L 4112 3097.5606 L 4111.3939 3097.5606 L 4110.7879 3097.5606 L 4110.7879 3096.9546 L 4110.7879 3096.3484 L 4110.1818 3096.3484 L 4109.5758 3096.3484 L 4109.5758 3096.9546 L 4109.5758 3097.5606 L 4105.9394 3097.5606 L 4102.303 3097.5606 L 4102.303 3098.1666 L 4102.303 3098.7727 L 4101.697 3098.7727 L 4101.0909 3098.7727 L 4101.0909 3099.3788 L 4101.0909 3099.9848 L 4101.697 3099.9848 L 4102.303 3099.9848 L 4102.303 3101.197 L 4102.303 3102.409 L 4101.697 3102.409 L 4101.0909 3102.409 L 4101.0909 3103.0151 L 4101.0909 3103.6212 L 4101.697 3103.6212 L 4102.303 3103.6212 L 4102.303 3104.2272 L 4102.303 3104.8334 L 4101.0909 3104.8334 L 4099.8788 3104.8334 L 4099.8788 3105.4394 L 4099.8788 3106.0454 L 4100.4849 3106.0454 L 4101.0909 3106.0454 L 4101.0909 3106.6514 L 4101.0909 3107.2575 L 4096.8485 3107.2575 L 4092.6061 3107.2575 L 4092.6061 3106.6514 L 4092.6061 3106.0454 L 4093.8182 3106.0454 L 4095.0303 3106.0454 L 4095.0303 3104.8334 L 4095.0303 3103.6212 L 4093.8182 3103.6212 L 4092.6061 3103.6212 L 4092.6061 3104.2272 L 4092.6061 3104.8334 L 4091.3939 3104.8334 L 4090.1818 3104.8334 L 4090.1818 3105.4394 L 4090.1818 3106.0454 L 4090.7879 3106.0454 L 4091.3939 3106.0454 L 4091.3939 3106.6514 L 4091.3939 3107.2575 L 4090.7879 3107.2575 L 4090.1818 3107.2575 L 4090.1818 3106.6514 L 4090.1818 3106.0454 L 4088.9697 3106.0454 L 4087.7576 3106.0454 L 4087.7576 3106.6514 L 4087.7576 3107.2575 L 4087.1515 3107.2575 L 4086.5454 3107.2575 L 4086.5454 3106.6514 L 4086.5454 3106.0454 L 4085.9394 3106.0454 L 4085.3334 3106.0454 L 4085.3334 3106.6514 L 4085.3334 3107.2575 L 4084.7273 3107.2575 L 4084.1212 3107.2575 L 4084.1212 3106.6514 L 4084.1212 3106.0454 L 4084.7273 3106.0454 L 4085.3334 3106.0454 L 4085.3334 3105.4394 L 4085.3334 3104.8334 L 4084.1212 3104.8334 L 4082.9091 3104.8334 L 4082.9091 3106.0454 L 4082.9091 3107.2575 L 4082.303 3107.2575 L 4081.697 3107.2575 L 4081.697 3106.0454 L 4081.697 3104.8334 L 4081.0909 3104.8334 L 4080.4849 3104.8334 L 4080.4849 3105.4394 L 4080.4849 3106.0454 L 4079.8788 3106.0454 L 4079.2727 3106.0454 L 4079.2727 3106.6514 L 4079.2727 3107.2575 L 4078.0606 3107.2575 L 4076.8485 3107.2575 L 4076.8485 3106.6514 L 4076.8485 3106.0454 L 4077.4546 3106.0454 L 4078.0606 3106.0454 L 4078.0606 3105.4394 L 4078.0606 3104.8334 L 4076.2425 3104.8334 L 4074.4242 3104.8334 L 4074.4242 3106.0454 L 4074.4242 3107.2575 L 4073.2122 3107.2575 L 4072 3107.2575 L 4072 3106.6514 L 4072 3106.0454 L 4072.6061 3106.0454 L 4073.2122 3106.0454 L 4073.2122 3105.4394 L 4073.2122 3104.8334 L 4072.6061 3104.8334 L 4072 3104.8334 L 4072 3104.2272 L 4072 3103.6212 L 4072.6061 3103.6212 L 4073.2122 3103.6212 L 4073.2122 3104.2272 L 4073.2122 3104.8334 L 4073.8182 3104.8334 L 4074.4242 3104.8334 L 4074.4242 3103.6212 L 4074.4242 3102.409 L 4073.8182 3102.409 L 4073.2122 3102.409 L 4073.2122 3101.803 L 4073.2122 3101.197 L 4072.6061 3101.197 L 4072 3101.197 L 4072 3096.3484 L 4072 3091.5 L 4072.6061 3091.5 L 4073.2122 3091.5 L 4073.2122 3092.106 L 4073.2122 3092.7121 L 4073.8182 3092.7121 L 4074.4242 3092.7121 L 4074.4242 3093.3182 L 4074.4242 3093.9242 L 4077.4546 3093.9242 L 4080.4849 3093.9242 L 4080.4849 3093.3182 L 4080.4849 3092.7121 L 4079.2727 3092.7121 L 4078.0606 3092.7121 L 4078.0606 3092.106 L 4078.0606 3091.5 L 4077.4546 3091.5 L 4076.8485 3091.5 L 4076.8485 3092.106 L 4076.8485 3092.7121 L 4076.2425 3092.7121 L 4075.6363 3092.7121 L 4075.6363 3092.106 L 4075.6363 3091.5 L 4076.2425 3091.5 L 4076.8485 3091.5 L 4076.8485 3090.8939 L 4076.8485 3090.2878 L 4077.4546 3090.2878 L 4078.0606 3090.2878 L 4078.0606 3090.8939 L 4078.0606 3091.5 L 4079.2727 3091.5 L 4080.4849 3091.5 L 4080.4849 3090.8939 L 4080.4849 3090.2878 L 4081.0909 3090.2878 L 4081.697 3090.2878 L 4081.697 3090.8939 L 4081.697 3091.5 L 4082.303 3091.5 L 4082.9091 3091.5 L 4082.9091 3092.106 L 4082.9091 3092.7121 L 4083.5151 3092.7121 L 4084.1212 3092.7121 L 4084.1212 3093.3182 L 4084.1212 3093.9242 L 4084.7273 3093.9242 L 4085.3334 3093.9242 L 4085.3334 3092.7121 L 4085.3334 3091.5 L 4084.7273 3091.5 L 4084.1212 3091.5 L 4084.1212 3090.8939 L 4084.1212 3090.2878 L 4084.7273 3090.2878 L 4085.3334 3090.2878 L 4085.3334 3089.0758 L 4085.3334 3087.8636 L 4084.7273 3087.8636 L 4084.1212 3087.8636 L 4084.1212 3087.2575 L 4084.1212 3086.6514 L 4082.9091 3086.6514 L 4081.697 3086.6514 L 4081.697 3087.8636 L 4081.697 3089.0758 L 4080.4849 3089.0758 L 4079.2727 3089.0758 L 4079.2727 3087.2575 L 4079.2727 3085.4394 L 4078.0606 3085.4394 L 4076.8485 3085.4394 L 4076.8485 3086.0454 L 4076.8485 3086.6514 L 4076.2425 3086.6514 L 4075.6363 3086.6514 L 4075.6363 3086.0454 L 4075.6363 3085.4394 L 4076.2425 3085.4394 L 4076.8485 3085.4394 L 4076.8485 3084.8334 L 4076.8485 3084.2272 L 4076.2425 3084.2272 L 4075.6363 3084.2272 L 4075.6363 3081.803 L 4075.6363 3079.3788 L 4076.8485 3079.3788 L 4078.0606 3079.3788 L 4078.0606 3079.9848 L 4078.0606 3080.5909 L 4077.4546 3080.5909 L 4076.8485 3080.5909 L 4076.8485 3082.409 L 4076.8485 3084.2272 L 4078.0606 3084.2272 L 4079.2727 3084.2272 L 4079.2727 3083.6212 L 4079.2727 3083.0151 L 4078.6667 3083.0151 L 4078.0606 3083.0151 L 4078.0606 3082.409 L 4078.0606 3081.803 L 4079.2727 3081.803 L 4080.4849 3081.803 L 4080.4849 3081.197 L 4080.4849 3080.5909 L 4079.8788 3080.5909 L 4079.2727 3080.5909 L 4079.2727 3079.3788 L 4079.2727 3078.1666 L 4079.8788 3078.1666 L 4080.4849 3078.1666 L 4080.4849 3077.5606 L 4080.4849 3076.9546 L 4081.697 3076.9546 L 4082.9091 3076.9546 L 4082.9091 3076.3485 L 4082.9091 3075.7424 L 4082.303 3075.7424 L 4081.697 3075.7424 L 4081.697 3072.7121 L 4081.697 3069.6818 L 4082.303 3069.6818 L 4082.9091 3069.6818 L 4082.9091 3069.0758 L 4082.9091 3068.4697 L 4082.303 3068.4697 L 4081.697 3068.4697 L 4081.697 3067.8636 L 4081.697 3067.2575 L 4083.5151 3067.2575 L 4085.3334 3067.2575 L 4085.3334 3067.8636 L 4085.3334 3068.4697 L 4085.9394 3068.4697 L 4086.5454 3068.4697 L 4086.5454 3067.8636 L 4086.5454 3067.2575 L 4087.1515 3067.2575 L 4087.7576 3067.2575 L 4087.7576 3067.8636 L 4087.7576 3068.4697 L 4088.3637 3068.4697 L 4088.9697 3068.4697 L 4088.9697 3067.8636 L 4088.9697 3067.2575 L 4089.5758 3067.2575 L 4090.1818 3067.2575 L 4090.1818 3067.8636 L 4090.1818 3068.4697 L 4090.7879 3068.4697 L 4091.3939 3068.4697 L 4091.3939 3069.0758 L 4091.3939 3069.6818 L 4092 3069.6818 L 4092.6061 3069.6818 L 4092.6061 3069.0758 L 4092.6061 3068.4697 L 4093.8182 3068.4697 L 4095.0303 3068.4697 L 4095.0303 3067.8636 L 4095.0303 3067.2575 L 4096.2425 3067.2575 L 4097.4546 3067.2575 L 4097.4546 3067.8636 M 4080.4849 3071.5 L 4080.4849 3075.7424 L 4076.2425 3075.7424 L 4072 3075.7424 L 4072 3071.5 L 4072 3067.2575 L 4076.2425 3067.2575 L 4080.4849 3067.2575 L 4080.4849 3071.5 M 4104.7273 3071.5 L 4104.7273 3074.5302 L 4107.7576 3074.5302 L 4110.7879 3074.5302 L 4110.7879 3071.5 L 4110.7879 3068.4697 L 4107.7576 3068.4697 L 4104.7273 3068.4697 L 4104.7273 3071.5 M 4088.9697 3069.0758 L 4088.9697 3069.6818 L 4088.3637 3069.6818 L 4087.7576 3069.6818 L 4087.7576 3069.0758 L 4087.7576 3068.4697 L 4087.1515 3068.4697 L 4086.5454 3068.4697 L 4086.5454 3069.0758 L 4086.5454 3069.6818 L 4085.3334 3069.6818 L 4084.1212 3069.6818 L 4084.1212 3070.2878 L 4084.1212 3070.8939 L 4083.5151 3070.8939 L 4082.9091 3070.8939 L 4082.9091 3072.106 L 4082.9091 3073.3182 L 4083.5151 3073.3182 L 4084.1212 3073.3182 L 4084.1212 3072.106 L 4084.1212 3070.8939 L 4084.7273 3070.8939 L 4085.3334 3070.8939 L 4085.3334 3071.5 L 4085.3334 3072.106 L 4086.5454 3072.106 L 4087.7576 3072.106 L 4087.7576 3072.7121 L 4087.7576 3073.3182 L 4086.5454 3073.3182 L 4085.3334 3073.3182 L 4085.3334 3074.5302 L 4085.3334 3075.7424 L 4085.9394 3075.7424 L 4086.5454 3075.7424 L 4086.5454 3076.9546 L 4086.5454 3078.1666 L 4085.9394 3078.1666 L 4085.3334 3078.1666 L 4085.3334 3077.5606 L 4085.3334 3076.9546 L 4084.1212 3076.9546 L 4082.9091 3076.9546 L 4082.9091 3077.5606 L 4082.9091 3078.1666 L 4081.697 3078.1666 L 4080.4849 3078.1666 L 4080.4849 3079.3788 L 4080.4849 3080.5909 L 4081.0909 3080.5909 L 4081.697 3080.5909 L 4081.697 3079.9848 L 4081.697 3079.3788 L 4082.303 3079.3788 L 4082.9091 3079.3788 L 4082.9091 3079.9848 L 4082.9091 3080.5909 L 4083.5151 3080.5909 L 4084.1212 3080.5909 L 4084.1212 3081.197 L 4084.1212 3081.803 L 4082.303 3081.803 L 4080.4849 3081.803 L 4080.4849 3082.409 L 4080.4849 3083.0151 L 4081.0909 3083.0151 L 4081.697 3083.0151 L 4081.697 3083.6212 L 4081.697 3084.2272 L 4082.303 3084.2272 L 4082.9091 3084.2272 L 4082.9091 3084.8334 L 4082.9091 3085.4394 L 4084.1212 3085.4394 L 4085.3334 3085.4394 L 4085.3334 3084.8334 L 4085.3334 3084.2272 L 4085.9394 3084.2272 L 4086.5454 3084.2272 L 4086.5454 3084.8334 L 4086.5454 3085.4394 L 4088.9697 3085.4394 L 4091.3939 3085.4394 L 4091.3939 3086.0454 L 4091.3939 3086.6514 L 4090.7879 3086.6514 L 4090.1818 3086.6514 L 4090.1818 3087.2575 L 4090.1818 3087.8636 L 4089.5758 3087.8636 L 4088.9697 3087.8636 L 4088.9697 3087.2575 L 4088.9697 3086.6514 L 4087.7576 3086.6514 L 4086.5454 3086.6514 L 4086.5454 3087.2575 L 4086.5454 3087.8636 L 4087.7576 3087.8636 L 4088.9697 3087.8636 L 4088.9697 3088.4697 L 4088.9697 3089.0758 L 4088.3637 3089.0758 L 4087.7576 3089.0758 L 4087.7576 3089.6818 L 4087.7576 3090.2878 L 4087.1515 3090.2878 L 4086.5454 3090.2878 L 4086.5454 3090.8939 L 4086.5454 3091.5 L 4087.1515 3091.5 L 4087.7576 3091.5 L 4087.7576 3092.106 L 4087.7576 3092.7121 L 4087.1515 3092.7121 L 4086.5454 3092.7121 L 4086.5454 3093.3182 L 4086.5454 3093.9242 L 4087.7576 3093.9242 L 4088.9697 3093.9242 L 4088.9697 3094.5302 L 4088.9697 3095.1363 L 4088.3637 3095.1363 L 4087.7576 3095.1363 L 4087.7576 3095.7424 L 4087.7576 3096.3484 L 4087.1515 3096.3484 L 4086.5454 3096.3484 L 4086.5454 3097.5606 L 4086.5454 3098.7727 L 4085.9394 3098.7727 L 4085.3334 3098.7727 L 4085.3334 3096.9546 L 4085.3334 3095.1363 L 4084.1212 3095.1363 L 4082.9091 3095.1363 L 4082.9091 3095.7424 L 4082.9091 3096.3484 L 4083.5151 3096.3484 L 4084.1212 3096.3484 L 4084.1212 3096.9546 L 4084.1212 3097.5606 L 4083.5151 3097.5606 L 4082.9091 3097.5606 L 4082.9091 3098.1666 L 4082.9091 3098.7727 L 4084.1212 3098.7727 L 4085.3334 3098.7727 L 4085.3334 3099.3788 L 4085.3334 3099.9848 L 4085.9394 3099.9848 L 4086.5454 3099.9848 L 4086.5454 3100.5909 L 4086.5454 3101.197 L 4085.9394 3101.197 L 4085.3334 3101.197 L 4085.3334 3103.0151 L 4085.3334 3104.8334 L 4085.9394 3104.8334 L 4086.5454 3104.8334 L 4086.5454 3105.4394 L 4086.5454 3106.0454 L 4087.1515 3106.0454 L 4087.7576 3106.0454 L 4087.7576 3105.4394 L 4087.7576 3104.8334 L 4087.1515 3104.8334 L 4086.5454 3104.8334 L 4086.5454 3104.2272 L 4086.5454 3103.6212 L 4087.7576 3103.6212 L 4088.9697 3103.6212 L 4088.9697 3104.2272 L 4088.9697 3104.8334 L 4089.5758 3104.8334 L 4090.1818 3104.8334 L 4090.1818 3104.2272 L 4090.1818 3103.6212 L 4090.7879 3103.6212 L 4091.3939 3103.6212 L 4091.3939 3103.0151 L 4091.3939 3102.409 L 4092 3102.409 L 4092.6061 3102.409 L 4092.6061 3101.803 L 4092.6061 3101.197 L 4093.2122 3101.197 L 4093.8182 3101.197 L 4093.8182 3101.803 L 4093.8182 3102.409 L 4094.4242 3102.409 L 4095.0303 3102.409 L 4095.0303 3103.0151 L 4095.0303 3103.6212 L 4095.6363 3103.6212 L 4096.2425 3103.6212 L 4096.2425 3104.2272 L 4096.2425 3104.8334 L 4096.8485 3104.8334 L 4097.4546 3104.8334 L 4097.4546 3105.4394 L 4097.4546 3106.0454 L 4098.0606 3106.0454 L 4098.6666 3106.0454 L 4098.6666 3105.4394 L 4098.6666 3104.8334 L 4099.2727 3104.8334 L 4099.8788 3104.8334 L 4099.8788 3104.2272 L 4099.8788 3103.6212 L 4098.0606 3103.6212 L 4096.2425 3103.6212 L 4096.2425 3102.409 L 4096.2425 3101.197 L 4096.8485 3101.197 L 4097.4546 3101.197 L 4097.4546 3100.5909 L 4097.4546 3099.9848 L 4098.0606 3099.9848 L 4098.6666 3099.9848 L 4098.6666 3101.197 L 4098.6666 3102.409 L 4099.8788 3102.409 L 4101.0909 3102.409 L 4101.0909 3101.803 L 4101.0909 3101.197 L 4100.4849 3101.197 L 4099.8788 3101.197 L 4099.8788 3099.9848 L 4099.8788 3098.7727 L 4097.4546 3098.7727 L 4095.0303 3098.7727 L 4095.0303 3098.1666 L 4095.0303 3097.5606 L 4095.6363 3097.5606 L 4096.2425 3097.5606 L 4096.2425 3096.9546 L 4096.2425 3096.3484 L 4096.8485 3096.3484 L 4097.4546 3096.3484 L 4097.4546 3096.9546 L 4097.4546 3097.5606 L 4098.6666 3097.5606 L 4099.8788 3097.5606 L 4099.8788 3096.9546 L 4099.8788 3096.3484 L 4100.4849 3096.3484 L 4101.0909 3096.3484 L 4101.0909 3096.9546 L 4101.0909 3097.5606 L 4101.697 3097.5606 L 4102.303 3097.5606 L 4102.303 3096.9546 L 4102.303 3096.3484 L 4103.5151 3096.3484 L 4104.7273 3096.3484 L 4104.7273 3095.7424 L 4104.7273 3095.1363 L 4104.1212 3095.1363 L 4103.5151 3095.1363 L 4103.5151 3094.5302 L 4103.5151 3093.9242 L 4104.1212 3093.9242 L 4104.7273 3093.9242 L 4104.7273 3093.3182 L 4104.7273 3092.7121 L 4104.1212 3092.7121 L 4103.5151 3092.7121 L 4103.5151 3092.106 L 4103.5151 3091.5 L 4104.7273 3091.5 L 4105.9394 3091.5 L 4105.9394 3090.8939 L 4105.9394 3090.2878 L 4107.1515 3090.2878 L 4108.3637 3090.2878 L 4108.3637 3090.8939 L 4108.3637 3091.5 L 4107.7576 3091.5 L 4107.1515 3091.5 L 4107.1515 3092.106 L 4107.1515 3092.7121 L 4108.3637 3092.7121 L 4109.5758 3092.7121 L 4109.5758 3090.8939 L 4109.5758 3089.0758 L 4108.9697 3089.0758 L 4108.3637 3089.0758 L 4108.3637 3088.4697 L 4108.3637 3087.8636 L 4109.5758 3087.8636 L 4110.7879 3087.8636 L 4110.7879 3086.6514 L 4110.7879 3085.4394 L 4110.1818 3085.4394 L 4109.5758 3085.4394 L 4109.5758 3084.8334 L 4109.5758 3084.2272 L 4108.9697 3084.2272 L 4108.3637 3084.2272 L 4108.3637 3086.0454 L 4108.3637 3087.8636 L 4107.7576 3087.8636 L 4107.1515 3087.8636 L 4107.1515 3085.4394 L 4107.1515 3083.0151 L 4108.3637 3083.0151 L 4109.5758 3083.0151 L 4109.5758 3082.409 L 4109.5758 3081.803 L 4110.1818 3081.803 L 4110.7879 3081.803 L 4110.7879 3081.197 L 4110.7879 3080.5909 L 4109.5758 3080.5909 L 4108.3637 3080.5909 L 4108.3637 3081.197 L 4108.3637 3081.803 L 4107.1515 3081.803 L 4105.9394 3081.803 L 4105.9394 3081.197 L 4105.9394 3080.5909 L 4106.5454 3080.5909 L 4107.1515 3080.5909 L 4107.1515 3079.3788 L 4107.1515 3078.1666 L 4105.3334 3078.1666 L 4103.5151 3078.1666 L 4103.5151 3078.7727 L 4103.5151 3079.3788 L 4104.7273 3079.3788 L 4105.9394 3079.3788 L 4105.9394 3079.9848 L 4105.9394 3080.5909 L 4104.7273 3080.5909 L 4103.5151 3080.5909 L 4103.5151 3081.197 L 4103.5151 3081.803 L 4101.697 3081.803 L 4099.8788 3081.803 L 4099.8788 3081.197 L 4099.8788 3080.5909 L 4101.0909 3080.5909 L 4102.303 3080.5909 L 4102.303 3079.3788 L 4102.303 3078.1666 L 4101.697 3078.1666 L 4101.0909 3078.1666 L 4101.0909 3077.5606 L 4101.0909 3076.9546 L 4100.4849 3076.9546 L 4099.8788 3076.9546 L 4099.8788 3076.3485 L 4099.8788 3075.7424 L 4099.2727 3075.7424 L 4098.6666 3075.7424 L 4098.6666 3075.1363 L 4098.6666 3074.5302 L 4098.0606 3074.5302 L 4097.4546 3074.5302 L 4097.4546 3075.1363 L 4097.4546 3075.7424 L 4096.8485 3075.7424 L 4096.2425 3075.7424 L 4096.2425 3075.1363 L 4096.2425 3074.5302 L 4095.6363 3074.5302 L 4095.0303 3074.5302 L 4095.0303 3075.1363 L 4095.0303 3075.7424 L 4094.4242 3075.7424 L 4093.8182 3075.7424 L 4093.8182 3075.1363 L 4093.8182 3074.5302 L 4093.2122 3074.5302 L 4092.6061 3074.5302 L 4092.6061 3073.3182 L 4092.6061 3072.106 L 4092 3072.106 L 4091.3939 3072.106 L 4091.3939 3073.3182 L 4091.3939 3074.5302 L 4090.7879 3074.5302 L 4090.1818 3074.5302 L 4090.1818 3075.1363 L 4090.1818 3075.7424 L 4089.5758 3075.7424 L 4088.9697 3075.7424 L 4088.9697 3075.1363 L 4088.9697 3074.5302 L 4088.3637 3074.5302 L 4087.7576 3074.5302 L 4087.7576 3073.9242 L 4087.7576 3073.3182 L 4088.9697 3073.3182 L 4090.1818 3073.3182 L 4090.1818 3070.8939 L 4090.1818 3068.4697 L 4089.5758 3068.4697 L 4088.9697 3068.4697 L 4088.9697 3069.0758 M 4073.2122 3071.5 L 4073.2122 3074.5302 L 4076.2425 3074.5302 L 4079.2727 3074.5302 L 4079.2727 3071.5 L 4079.2727 3068.4697 L 4076.2425 3068.4697 L 4073.2122 3068.4697 L 4073.2122 3071.5 M 4109.5758 3071.5 L 4109.5758 3073.3182 L 4107.7576 3073.3182 L 4105.9394 3073.3182 L 4105.9394 3071.5 L 4105.9394 3069.6818 L 4107.7576 3069.6818 L 4109.5758 3069.6818 L 4109.5758 3071.5 M 4078.0606 3071.5 L 4078.0606 3073.3182 L 4076.2425 3073.3182 L 4074.4242 3073.3182 L 4074.4242 3071.5 L 4074.4242 3069.6818 L 4076.2425 3069.6818 L 4078.0606 3069.6818 L 4078.0606 3071.5 M 4088.9697 3071.5 L 4088.9697 3072.106 L 4088.3637 3072.106 L 4087.7576 3072.106 L 4087.7576 3071.5 L 4087.7576 3070.8939 L 4088.3637 3070.8939 L 4088.9697 3070.8939 L 4088.9697 3071.5 M 4092.6061 3075.1363 L 4092.6061 3075.7424 L 4093.2122 3075.7424 L 4093.8182 3075.7424 L 4093.8182 3076.3485 L 4093.8182 3076.9546 L 4093.2122 3076.9546 L 4092.6061 3076.9546 L 4092.6061 3077.5606 L 4092.6061 3078.1666 L 4093.8182 3078.1666 L 4095.0303 3078.1666 L 4095.0303 3076.9546 L 4095.0303 3075.7424 L 4095.6363 3075.7424 L 4096.2425 3075.7424 L 4096.2425 3077.5606 L 4096.2425 3079.3788 L 4095.0303 3079.3788 L 4093.8182 3079.3788 L 4093.8182 3079.9848 L 4093.8182 3080.5909 L 4093.2122 3080.5909 L 4092.6061 3080.5909 L 4092.6061 3079.9848 L 4092.6061 3079.3788 L 4090.7879 3079.3788 L 4088.9697 3079.3788 L 4088.9697 3078.7727 L 4088.9697 3078.1666 L 4088.3637 3078.1666 L 4087.7576 3078.1666 L 4087.7576 3076.9546 L 4087.7576 3075.7424 L 4087.1515 3075.7424 L 4086.5454 3075.7424 L 4086.5454 3075.1363 L 4086.5454 3074.5302 L 4087.1515 3074.5302 L 4087.7576 3074.5302 L 4087.7576 3075.1363 L 4087.7576 3075.7424 L 4088.3637 3075.7424 L 4088.9697 3075.7424 L 4088.9697 3076.9546 L 4088.9697 3078.1666 L 4089.5758 3078.1666 L 4090.1818 3078.1666 L 4090.1818 3077.5606 L 4090.1818 3076.9546 L 4090.7879 3076.9546 L 4091.3939 3076.9546 L 4091.3939 3075.7424 L 4091.3939 3074.5302 L 4092 3074.5302 L 4092.6061 3074.5302 L 4092.6061 3075.1363 M 4082.9091 3075.1363 L 4082.9091 3075.7424 L 4083.5151 3075.7424 L 4084.1212 3075.7424 L 4084.1212 3075.1363 L 4084.1212 3074.5302 L 4083.5151 3074.5302 L 4082.9091 3074.5302 L 4082.9091 3075.1363 M 4099.8788 3078.7727 L 4099.8788 3080.5909 L 4099.2727 3080.5909 L 4098.6666 3080.5909 L 4098.6666 3079.9848 L 4098.6666 3079.3788 L 4098.0606 3079.3788 L 4097.4546 3079.3788 L 4097.4546 3078.1666 L 4097.4546 3076.9546 L 4098.6666 3076.9546 L 4099.8788 3076.9546 L 4099.8788 3078.7727 M 4076.8485 3077.5606 L 4076.8485 3078.1666 L 4076.2425 3078.1666 L 4075.6363 3078.1666 L 4075.6363 3077.5606 L 4075.6363 3076.9546 L 4076.2425 3076.9546 L 4076.8485 3076.9546 L 4076.8485 3077.5606 M 4073.2122 3077.5606 L 4073.2122 3078.1666 L 4073.8182 3078.1666 L 4074.4242 3078.1666 L 4074.4242 3079.9848 L 4074.4242 3081.803 L 4073.8182 3081.803 L 4073.2122 3081.803 L 4073.2122 3081.197 L 4073.2122 3080.5909 L 4072.6061 3080.5909 L 4072 3080.5909 L 4072 3078.7727 L 4072 3076.9546 L 4072.6061 3076.9546 L 4073.2122 3076.9546 L 4073.2122 3077.5606 M 4085.3334 3078.7727 L 4085.3334 3079.3788 L 4085.9394 3079.3788 L 4086.5454 3079.3788 L 4086.5454 3079.9848 L 4086.5454 3080.5909 L 4088.3637 3080.5909 L 4090.1818 3080.5909 L 4090.1818 3081.197 L 4090.1818 3081.803 L 4089.5758 3081.803 L 4088.9697 3081.803 L 4088.9697 3082.409 L 4088.9697 3083.0151 L 4089.5758 3083.0151 L 4090.1818 3083.0151 L 4090.1818 3083.6212 L 4090.1818 3084.2272 L 4089.5758 3084.2272 L 4088.9697 3084.2272 L 4088.9697 3083.6212 L 4088.9697 3083.0151 L 4088.3637 3083.0151 L 4087.7576 3083.0151 L 4087.7576 3083.6212 L 4087.7576 3084.2272 L 4087.1515 3084.2272 L 4086.5454 3084.2272 L 4086.5454 3082.409 L 4086.5454 3080.5909 L 4085.9394 3080.5909 L 4085.3334 3080.5909 L 4085.3334 3079.9848 L 4085.3334 3079.3788 L 4084.7273 3079.3788 L 4084.1212 3079.3788 L 4084.1212 3078.7727 L 4084.1212 3078.1666 L 4084.7273 3078.1666 L 4085.3334 3078.1666 L 4085.3334 3078.7727 M 4096.2425 3081.197 L 4096.2425 3081.803 L 4098.0606 3081.803 L 4099.8788 3081.803 L 4099.8788 3082.409 L 4099.8788 3083.0151 L 4099.2727 3083.0151 L 4098.6666 3083.0151 L 4098.6666 3083.6212 L 4098.6666 3084.2272 L 4099.2727 3084.2272 L 4099.8788 3084.2272 L 4099.8788 3085.4394 L 4099.8788 3086.6514 L 4101.0909 3086.6514 L 4102.303 3086.6514 L 4102.303 3087.2575 L 4102.303 3087.8636 L 4102.9091 3087.8636 L 4103.5151 3087.8636 L 4103.5151 3087.2575 L 4103.5151 3086.6514 L 4104.7273 3086.6514 L 4105.9394 3086.6514 L 4105.9394 3087.2575 L 4105.9394 3087.8636 L 4104.7273 3087.8636 L 4103.5151 3087.8636 L 4103.5151 3088.4697 L 4103.5151 3089.0758 L 4104.7273 3089.0758 L 4105.9394 3089.0758 L 4105.9394 3089.6818 L 4105.9394 3090.2878 L 4103.5151 3090.2878 L 4101.0909 3090.2878 L 4101.0909 3090.8939 L 4101.0909 3091.5 L 4101.697 3091.5 L 4102.303 3091.5 L 4102.303 3092.106 L 4102.303 3092.7121 L 4101.697 3092.7121 L 4101.0909 3092.7121 L 4101.0909 3092.106 L 4101.0909 3091.5 L 4100.4849 3091.5 L 4099.8788 3091.5 L 4099.8788 3092.106 L 4099.8788 3092.7121 L 4099.2727 3092.7121 L 4098.6666 3092.7121 L 4098.6666 3093.3182 L 4098.6666 3093.9242 L 4099.2727 3093.9242 L 4099.8788 3093.9242 L 4099.8788 3094.5302 L 4099.8788 3095.1363 L 4099.2727 3095.1363 L 4098.6666 3095.1363 L 4098.6666 3094.5302 L 4098.6666 3093.9242 L 4098.0606 3093.9242 L 4097.4546 3093.9242 L 4097.4546 3092.7121 L 4097.4546 3091.5 L 4098.6666 3091.5 L 4099.8788 3091.5 L 4099.8788 3090.8939 L 4099.8788 3090.2878 L 4098.0606 3090.2878 L 4096.2425 3090.2878 L 4096.2425 3089.6818 L 4096.2425 3089.0758 L 4095.6363 3089.0758 L 4095.0303 3089.0758 L 4095.0303 3089.6818 L 4095.0303 3090.2878 L 4094.4242 3090.2878 L 4093.8182 3090.2878 L 4093.8182 3091.5 L 4093.8182 3092.7121 L 4093.2122 3092.7121 L 4092.6061 3092.7121 L 4092.6061 3093.3182 L 4092.6061 3093.9242 L 4092 3093.9242 L 4091.3939 3093.9242 L 4091.3939 3094.5302 L 4091.3939 3095.1363 L 4090.7879 3095.1363 L 4090.1818 3095.1363 L 4090.1818 3096.3484 L 4090.1818 3097.5606 L 4088.9697 3097.5606 L 4087.7576 3097.5606 L 4087.7576 3096.9546 L 4087.7576 3096.3484 L 4088.3637 3096.3484 L 4088.9697 3096.3484 L 4088.9697 3095.7424 L 4088.9697 3095.1363 L 4089.5758 3095.1363 L 4090.1818 3095.1363 L 4090.1818 3092.106 L 4090.1818 3089.0758 L 4091.3939 3089.0758 L 4092.6061 3089.0758 L 4092.6061 3087.2575 L 4092.6061 3085.4394 L 4094.4242 3085.4394 L 4096.2425 3085.4394 L 4096.2425 3083.6212 L 4096.2425 3081.803 L 4095.6363 3081.803 L 4095.0303 3081.803 L 4095.0303 3083.0151 L 4095.0303 3084.2272 L 4093.2122 3084.2272 L 4091.3939 3084.2272 L 4091.3939 3083.6212 L 4091.3939 3083.0151 L 4092 3083.0151 L 4092.6061 3083.0151 L 4092.6061 3082.409 L 4092.6061 3081.803 L 4093.8182 3081.803 L 4095.0303 3081.803 L 4095.0303 3081.197 L 4095.0303 3080.5909 L 4095.6363 3080.5909 L 4096.2425 3080.5909 L 4096.2425 3081.197 M 4104.7273 3082.409 L 4104.7273 3083.0151 L 4104.1212 3083.0151 L 4103.5151 3083.0151 L 4103.5151 3082.409 L 4103.5151 3081.803 L 4104.1212 3081.803 L 4104.7273 3081.803 L 4104.7273 3082.409 M 4102.303 3083.6212 L 4102.303 3084.2272 L 4104.1212 3084.2272 L 4105.9394 3084.2272 L 4105.9394 3084.8334 L 4105.9394 3085.4394 L 4103.5151 3085.4394 L 4101.0909 3085.4394 L 4101.0909 3084.2272 L 4101.0909 3083.0151 L 4101.697 3083.0151 L 4102.303 3083.0151 L 4102.303 3083.6212 M 4074.4242 3085.4394 L 4074.4242 3087.8636 L 4075.6363 3087.8636 L 4076.8485 3087.8636 L 4076.8485 3088.4697 L 4076.8485 3089.0758 L 4076.2425 3089.0758 L 4075.6363 3089.0758 L 4075.6363 3089.6818 L 4075.6363 3090.2878 L 4073.8182 3090.2878 L 4072 3090.2878 L 4072 3089.0758 L 4072 3087.8636 L 4072.6061 3087.8636 L 4073.2122 3087.8636 L 4073.2122 3087.2575 L 4073.2122 3086.6514 L 4072.6061 3086.6514 L 4072 3086.6514 L 4072 3084.8334 L 4072 3083.0151 L 4073.2122 3083.0151 L 4074.4242 3083.0151 L 4074.4242 3085.4394 M 4097.4546 3084.8334 L 4097.4546 3085.4394 L 4098.0606 3085.4394 L 4098.6666 3085.4394 L 4098.6666 3084.8334 L 4098.6666 3084.2272 L 4098.0606 3084.2272 L 4097.4546 3084.2272 L 4097.4546 3084.8334 M 4079.2727 3084.8334 L 4079.2727 3085.4394 L 4079.8788 3085.4394 L 4080.4849 3085.4394 L 4080.4849 3084.8334 L 4080.4849 3084.2272 L 4079.8788 3084.2272 L 4079.2727 3084.2272 L 4079.2727 3084.8334 M 4097.4546 3087.2575 L 4097.4546 3087.8636 L 4096.8485 3087.8636 L 4096.2425 3087.8636 L 4096.2425 3088.4697 L 4096.2425 3089.0758 L 4097.4546 3089.0758 L 4098.6666 3089.0758 L 4098.6666 3088.4697 L 4098.6666 3087.8636 L 4099.2727 3087.8636 L 4099.8788 3087.8636 L 4099.8788 3088.4697 L 4099.8788 3089.0758 L 4100.4849 3089.0758 L 4101.0909 3089.0758 L 4101.0909 3088.4697 L 4101.0909 3087.8636 L 4100.4849 3087.8636 L 4099.8788 3087.8636 L 4099.8788 3087.2575 L 4099.8788 3086.6514 L 4098.6666 3086.6514 L 4097.4546 3086.6514 L 4097.4546 3087.2575 M 4093.8182 3088.4697 L 4093.8182 3089.0758 L 4094.4242 3089.0758 L 4095.0303 3089.0758 L 4095.0303 3088.4697 L 4095.0303 3087.8636 L 4094.4242 3087.8636 L 4093.8182 3087.8636 L 4093.8182 3088.4697 M 4091.3939 3091.5 L 4091.3939 3092.7121 L 4092 3092.7121 L 4092.6061 3092.7121 L 4092.6061 3091.5 L 4092.6061 3090.2878 L 4092 3090.2878 L 4091.3939 3090.2878 L 4091.3939 3091.5 M 4096.2425 3093.3182 L 4096.2425 3095.1363 L 4095.6363 3095.1363 L 4095.0303 3095.1363 L 4095.0303 3096.3484 L 4095.0303 3097.5606 L 4094.4242 3097.5606 L 4093.8182 3097.5606 L 4093.8182 3098.1666 L 4093.8182 3098.7727 L 4094.4242 3098.7727 L 4095.0303 3098.7727 L 4095.0303 3099.3788 L 4095.0303 3099.9848 L 4093.2122 3099.9848 L 4091.3939 3099.9848 L 4091.3939 3101.197 L 4091.3939 3102.409 L 4090.1818 3102.409 L 4088.9697 3102.409 L 4088.9697 3101.197 L 4088.9697 3099.9848 L 4087.7576 3099.9848 L 4086.5454 3099.9848 L 4086.5454 3099.3788 L 4086.5454 3098.7727 L 4087.7576 3098.7727 L 4088.9697 3098.7727 L 4088.9697 3099.3788 L 4088.9697 3099.9848 L 4090.1818 3099.9848 L 4091.3939 3099.9848 L 4091.3939 3099.3788 L 4091.3939 3098.7727 L 4092 3098.7727 L 4092.6061 3098.7727 L 4092.6061 3098.1666 L 4092.6061 3097.5606 L 4092 3097.5606 L 4091.3939 3097.5606 L 4091.3939 3096.9546 L 4091.3939 3096.3484 L 4092 3096.3484 L 4092.6061 3096.3484 L 4092.6061 3095.7424 L 4092.6061 3095.1363 L 4093.8182 3095.1363 L 4095.0303 3095.1363 L 4095.0303 3093.3182 L 4095.0303 3091.5 L 4095.6363 3091.5 L 4096.2425 3091.5 L 4096.2425 3093.3182 M 4080.4849 3092.106 L 4080.4849 3092.7121 L 4081.0909 3092.7121 L 4081.697 3092.7121 L 4081.697 3092.106 L 4081.697 3091.5 L 4081.0909 3091.5 L 4080.4849 3091.5 L 4080.4849 3092.106 M 4105.9394 3095.1363 L 4105.9394 3096.3484 L 4107.1515 3096.3484 L 4108.3637 3096.3484 L 4108.3637 3095.7424 L 4108.3637 3095.1363 L 4109.5758 3095.1363 L 4110.7879 3095.1363 L 4110.7879 3094.5302 L 4110.7879 3093.9242 L 4108.3637 3093.9242 L 4105.9394 3093.9242 L 4105.9394 3095.1363 M 4080.4849 3094.5302 L 4080.4849 3095.1363 L 4079.8788 3095.1363 L 4079.2727 3095.1363 L 4079.2727 3095.7424 L 4079.2727 3096.3484 L 4079.8788 3096.3484 L 4080.4849 3096.3484 L 4080.4849 3095.7424 L 4080.4849 3095.1363 L 4081.0909 3095.1363 L 4081.697 3095.1363 L 4081.697 3094.5302 L 4081.697 3093.9242 L 4081.0909 3093.9242 L 4080.4849 3093.9242 L 4080.4849 3094.5302 M 4074.4242 3096.3484 L 4074.4242 3097.5606 L 4075.6363 3097.5606 L 4076.8485 3097.5606 L 4076.8485 3096.9546 L 4076.8485 3096.3484 L 4077.4546 3096.3484 L 4078.0606 3096.3484 L 4078.0606 3095.7424 L 4078.0606 3095.1363 L 4076.2425 3095.1363 L 4074.4242 3095.1363 L 4074.4242 3096.3484 M 4092.6061 3096.9546 L 4092.6061 3097.5606 L 4093.2122 3097.5606 L 4093.8182 3097.5606 L 4093.8182 3096.9546 L 4093.8182 3096.3484 L 4093.2122 3096.3484 L 4092.6061 3096.3484 L 4092.6061 3096.9546 M 4078.0606 3099.3788 L 4078.0606 3101.197 L 4079.8788 3101.197 L 4081.697 3101.197 L 4081.697 3099.3788 L 4081.697 3097.5606 L 4079.8788 3097.5606 L 4078.0606 3097.5606 L 4078.0606 3099.3788 M 4112 3103.0151 L 4112 3107.2575 L 4107.7576 3107.2575 L 4103.5151 3107.2575 L 4103.5151 3103.0151 L 4103.5151 3098.7727 L 4107.7576 3098.7727 L 4112 3098.7727 L 4112 3103.0151 M 4080.4849 3099.3788 L 4080.4849 3099.9848 L 4079.8788 3099.9848 L 4079.2727 3099.9848 L 4079.2727 3099.3788 L 4079.2727 3098.7727 L 4079.8788 3098.7727 L 4080.4849 3098.7727 L 4080.4849 3099.3788 M 4104.7273 3103.0151 L 4104.7273 3106.0454 L 4107.7576 3106.0454 L 4110.7879 3106.0454 L 4110.7879 3103.0151 L 4110.7879 3099.9848 L 4107.7576 3099.9848 L 4104.7273 3099.9848 L 4104.7273 3103.0151 M 4082.9091 3101.197 L 4082.9091 3102.409 L 4080.4849 3102.409 L 4078.0606 3102.409 L 4078.0606 3103.0151 L 4078.0606 3103.6212 L 4078.6667 3103.6212 L 4079.2727 3103.6212 L 4079.2727 3104.2272 L 4079.2727 3104.8334 L 4079.8788 3104.8334 L 4080.4849 3104.8334 L 4080.4849 3104.2272 L 4080.4849 3103.6212 L 4082.303 3103.6212 L 4084.1212 3103.6212 L 4084.1212 3101.803 L 4084.1212 3099.9848 L 4083.5151 3099.9848 L 4082.9091 3099.9848 L 4082.9091 3101.197 M 4073.2122 3100.5909 L 4073.2122 3101.197 L 4073.8182 3101.197 L 4074.4242 3101.197 L 4074.4242 3101.803 L 4074.4242 3102.409 L 4075.0303 3102.409 L 4075.6363 3102.409 L 4075.6363 3103.0151 L 4075.6363 3103.6212 L 4076.2425 3103.6212 L 4076.8485 3103.6212 L 4076.8485 3102.409 L 4076.8485 3101.197 L 4076.2425 3101.197 L 4075.6363 3101.197 L 4075.6363 3100.5909 L 4075.6363 3099.9848 L 4074.4242 3099.9848 L 4073.2122 3099.9848 L 4073.2122 3100.5909 M 4109.5758 3103.0151 L 4109.5758 3104.8334 L 4107.7576 3104.8334 L 4105.9394 3104.8334 L 4105.9394 3103.0151 L 4105.9394 3101.197 L 4107.7576 3101.197 L 4109.5758 3101.197 L 4109.5758 3103.0151" stroke="none" layerid="4" id="gge17753"></path><g c_partid="part_pad" c_etype="pinpart" c_origin="4082,3120" layerid="11" number="6" net="GND" plated ="Y"  id="gge3660" locked="0" c_rotation="0" c_width="6.2" c_height="6.2" title="GND" c_shape="ELLIPSE" pasteexpansion="0" solderexpansion="0.2"><ellipse c_etype="pad_shell" cx="4082" cy="3120" rx="3.1" ry="3.1" layerid="11" stroke-width="0"/><circle c_etype="pad_hole" cx="4082" cy="3120" r="1.75" layerid="11" stroke-width="0"/></g><g c_partid="part_pad" c_etype="pinpart" c_origin="4082,3130" layerid="11" number="5" net="RST" plated ="Y"  id="gge3675" locked="0" c_rotation="0" c_width="6.2" c_height="6.2" title="RST" c_shape="ELLIPSE" pasteexpansion="0" solderexpansion="0.2"><ellipse c_etype="pad_shell" cx="4082" cy="3130" rx="3.1" ry="3.1" layerid="11" stroke-width="0"/><circle c_etype="pad_hole" cx="4082" cy="3130" r="1.75" layerid="11" stroke-width="0"/></g><g c_partid="part_pad" c_etype="pinpart" c_origin="4092,3120" layerid="11" number="4" net="MOSI" plated ="Y"  id="gge3690" locked="0" c_rotation="0" c_width="6.2" c_height="6.2" title="MOSI" c_shape="ELLIPSE" pasteexpansion="0" solderexpansion="0.2"><ellipse c_etype="pad_shell" cx="4092" cy="3120" rx="3.1" ry="3.1" layerid="11" stroke-width="0"/><circle c_etype="pad_hole" cx="4092" cy="3120" r="1.75" layerid="11" stroke-width="0"/></g><g c_partid="part_pad" c_etype="pinpart" c_origin="4092,3130" layerid="11" number="3" net="SCK" plated ="Y"  id="gge3705" locked="0" c_rotation="0" c_width="6.2" c_height="6.2" title="SCK" c_shape="ELLIPSE" pasteexpansion="0" solderexpansion="0.2"><ellipse c_etype="pad_shell" cx="4092" cy="3130" rx="3.1" ry="3.1" layerid="11" stroke-width="0"/><circle c_etype="pad_hole" cx="4092" cy="3130" r="1.75" layerid="11" stroke-width="0"/></g><g c_partid="part_pad" c_etype="pinpart" c_origin="4102,3120" layerid="11" number="2" net="VIN" plated ="Y"  id="gge3720" locked="0" c_rotation="0" c_width="6.2" c_height="6.2" title="VIN" c_shape="ELLIPSE" pasteexpansion="0" solderexpansion="0.2"><ellipse c_etype="pad_shell" cx="4102" cy="3120" rx="3.1" ry="3.1" layerid="11" stroke-width="0"/><circle c_etype="pad_hole" cx="4102" cy="3120" r="1.75" layerid="11" stroke-width="0"/></g><g c_partid="part_pad" c_etype="pinpart" c_origin="4102,3130" layerid="11" number="1" net="MISO" plated ="Y"  id="gge3735" locked="0" c_rotation="0" c_width="6.2" c_height="6.2" title="MISO" c_shape="RECT" pasteexpansion="0" solderexpansion="0.2"><polygon  c_etype="pad_shell" points="4105.1 3126.9 4098.9 3126.9 4098.9 3133.1 4105.1 3133.1" layerid="11" stroke-width="0" /><circle c_etype="pad_hole" cx="4102" cy="3130" r="1.75" layerid="11" stroke-width="0"/></g><g c_partid="part_via" c_etype="pinpart" c_shapetype="group" net="RST" c_origin="4107.172,3119.022" layerid="11" id="gge14074" locked="0" solderexpansion=""><circle cx="4107.172" cy="3119.022" r="1.2" stroke-width="0" c_etype="pad_shell"/><circle cx="4107.172" cy="3119.022" r="0.6"  stroke-width="0" c_etype="pad_hole"/></g><g c_partid="part_via" c_etype="pinpart" c_shapetype="group" net="U1_18" c_origin="4146.177,3117.609" layerid="11" id="gge14089" locked="0" solderexpansion=""><circle cx="4146.177" cy="3117.609" r="1.2" stroke-width="0" c_etype="pad_shell"/><circle cx="4146.177" cy="3117.609" r="0.6"  stroke-width="0" c_etype="pad_hole"/></g><g c_partid="part_via" c_etype="pinpart" c_shapetype="group" net="U1_18" c_origin="4136.673,3162.389" layerid="11" id="gge14092" locked="0" solderexpansion=""><circle cx="4136.673" cy="3162.389" r="1.2" stroke-width="0" c_etype="pad_shell"/><circle cx="4136.673" cy="3162.389" r="0.6"  stroke-width="0" c_etype="pad_hole"/></g><g c_partid="part_via" c_etype="pinpart" c_shapetype="group" net="RES" c_origin="4183.808,3132.569" layerid="11" id="gge14128" locked="0" solderexpansion=""><circle cx="4183.808" cy="3132.569" r="1.2" stroke-width="0" c_etype="pad_shell"/><circle cx="4183.808" cy="3132.569" r="0.6"  stroke-width="0" c_etype="pad_hole"/></g><g c_partid="part_via" c_etype="pinpart" c_shapetype="group" net="RES" c_origin="4166.438,3149.09" layerid="11" id="gge14131" locked="0" solderexpansion=""><circle cx="4166.438" cy="3149.09" r="1.2" stroke-width="0" c_etype="pad_shell"/><circle cx="4166.438" cy="3149.09" r="0.6"  stroke-width="0" c_etype="pad_hole"/></g><g c_partid="part_via" c_etype="pinpart" c_shapetype="group" net="RES" c_origin="4184.991,3185.572" layerid="11" id="gge14134" locked="0" solderexpansion=""><circle cx="4184.991" cy="3185.572" r="1.2" stroke-width="0" c_etype="pad_shell"/><circle cx="4184.991" cy="3185.572" r="0.6"  stroke-width="0" c_etype="pad_hole"/></g><g c_partid="part_via" c_etype="pinpart" c_shapetype="group" net="VIN" c_origin="4201,3107.5" layerid="11" id="gge14191" locked="0" solderexpansion=""><circle cx="4201" cy="3107.5" r="1.2" stroke-width="0" c_etype="pad_shell"/><circle cx="4201" cy="3107.5" r="0.6"  stroke-width="0" c_etype="pad_hole"/></g><g c_partid="part_via" c_etype="pinpart" c_shapetype="group" net="VIN" c_origin="4201,3188.5" layerid="11" id="gge14194" locked="0" solderexpansion=""><circle cx="4201" cy="3188.5" r="1.2" stroke-width="0" c_etype="pad_shell"/><circle cx="4201" cy="3188.5" r="0.6"  stroke-width="0" c_etype="pad_hole"/></g><g c_partid="part_via" c_etype="pinpart" c_shapetype="group" net="VIN" c_origin="4210,3104" layerid="11" id="gge14197" locked="0" solderexpansion=""><circle cx="4210" cy="3104" r="1.2" stroke-width="0" c_etype="pad_shell"/><circle cx="4210" cy="3104" r="0.6"  stroke-width="0" c_etype="pad_hole"/></g><g c_partid="part_via" c_etype="pinpart" c_shapetype="group" net="OLED1_2" c_origin="4186.235,3104.326" layerid="11" id="gge14212" locked="0" solderexpansion=""><circle cx="4186.235" cy="3104.326" r="1.2" stroke-width="0" c_etype="pad_shell"/><circle cx="4186.235" cy="3104.326" r="0.6"  stroke-width="0" c_etype="pad_hole"/></g><g c_partid="part_via" c_etype="pinpart" c_shapetype="group" net="OLED1_2" c_origin="4192.446,3190.539" layerid="11" id="gge14215" locked="0" solderexpansion=""><circle cx="4192.446" cy="3190.539" r="1.2" stroke-width="0" c_etype="pad_shell"/><circle cx="4192.446" cy="3190.539" r="0.6"  stroke-width="0" c_etype="pad_hole"/></g><g c_partid="part_via" c_etype="pinpart" c_shapetype="group" net="OLED1_1" c_origin="4190,3104.591" layerid="11" id="gge14227" locked="0" solderexpansion=""><circle cx="4190" cy="3104.591" r="1.2" stroke-width="0" c_etype="pad_shell"/><circle cx="4190" cy="3104.591" r="0.6"  stroke-width="0" c_etype="pad_hole"/></g><g c_partid="part_via" c_etype="pinpart" c_shapetype="group" net="OLED1_1" c_origin="4190.038,3186.386" layerid="11" id="gge14230" locked="0" solderexpansion=""><circle cx="4190.038" cy="3186.386" r="1.2" stroke-width="0" c_etype="pad_shell"/><circle cx="4190.038" cy="3186.386" r="0.6"  stroke-width="0" c_etype="pad_hole"/></g><g c_partid="part_via" c_etype="pinpart" c_shapetype="group" net="CS" c_origin="4168.394,3154.224" layerid="11" id="gge14245" locked="0" solderexpansion=""><circle cx="4168.394" cy="3154.224" r="1.2" stroke-width="0" c_etype="pad_shell"/><circle cx="4168.394" cy="3154.224" r="0.6"  stroke-width="0" c_etype="pad_hole"/></g><g c_partid="part_via" c_etype="pinpart" c_shapetype="group" net="OLED1_4" c_origin="4195.466,3092.063" layerid="11" id="gge14266" locked="0" solderexpansion=""><circle cx="4195.466" cy="3092.063" r="1.2" stroke-width="0" c_etype="pad_shell"/><circle cx="4195.466" cy="3092.063" r="0.6"  stroke-width="0" c_etype="pad_hole"/></g><g c_partid="part_via" c_etype="pinpart" c_shapetype="group" net="OLED1_4" c_origin="4198.598,3190.759" layerid="11" id="gge14269" locked="0" solderexpansion=""><circle cx="4198.598" cy="3190.759" r="1.2" stroke-width="0" c_etype="pad_shell"/><circle cx="4198.598" cy="3190.759" r="0.6"  stroke-width="0" c_etype="pad_hole"/></g><g c_partid="part_via" c_etype="pinpart" c_shapetype="group" net="OLED1_3" c_origin="4195.548,3103.686" layerid="11" id="gge14284" locked="0" solderexpansion=""><circle cx="4195.548" cy="3103.686" r="1.2" stroke-width="0" c_etype="pad_shell"/><circle cx="4195.548" cy="3103.686" r="0.6"  stroke-width="0" c_etype="pad_hole"/></g><g c_partid="part_via" c_etype="pinpart" c_shapetype="group" net="OLED1_3" c_origin="4195.548,3190.768" layerid="11" id="gge14287" locked="0" solderexpansion=""><circle cx="4195.548" cy="3190.768" r="1.2" stroke-width="0" c_etype="pad_shell"/><circle cx="4195.548" cy="3190.768" r="0.6"  stroke-width="0" c_etype="pad_hole"/></g><g c_partid="part_via" c_etype="pinpart" c_shapetype="group" net="DC" c_origin="4169.128,3151.192" layerid="11" id="gge14350" locked="0" solderexpansion=""><circle cx="4169.128" cy="3151.192" r="1.2" stroke-width="0" c_etype="pad_shell"/><circle cx="4169.128" cy="3151.192" r="0.6"  stroke-width="0" c_etype="pad_hole"/></g><g c_partid="part_via" c_etype="pinpart" c_shapetype="group" net="DC" c_origin="4213.5,3204.5" layerid="11" id="gge14353" locked="0" solderexpansion=""><circle cx="4213.5" cy="3204.5" r="1.2" stroke-width="0" c_etype="pad_shell"/><circle cx="4213.5" cy="3204.5" r="0.6"  stroke-width="0" c_etype="pad_hole"/></g><g c_partid="part_via" c_etype="pinpart" c_shapetype="group" net="LED7" c_origin="4132.811,3144.776" layerid="11" id="gge14434" locked="0" solderexpansion=""><circle cx="4132.811" cy="3144.776" r="1.2" stroke-width="0" c_etype="pad_shell"/><circle cx="4132.811" cy="3144.776" r="0.6"  stroke-width="0" c_etype="pad_hole"/></g><g c_partid="part_via" c_etype="pinpart" c_shapetype="group" net="LED7" c_origin="4132.811,3072.64" layerid="11" id="gge14437" locked="0" solderexpansion=""><circle cx="4132.811" cy="3072.64" r="1.2" stroke-width="0" c_etype="pad_shell"/><circle cx="4132.811" cy="3072.64" r="0.6"  stroke-width="0" c_etype="pad_hole"/></g><g c_partid="part_via" c_etype="pinpart" c_shapetype="group" net="LED6" c_origin="4138.505,3077.14" layerid="11" id="gge14449" locked="0" solderexpansion=""><circle cx="4138.505" cy="3077.14" r="1.2" stroke-width="0" c_etype="pad_shell"/><circle cx="4138.505" cy="3077.14" r="0.6"  stroke-width="0" c_etype="pad_hole"/></g><g c_partid="part_via" c_etype="pinpart" c_shapetype="group" net="LED6" c_origin="4138.505,3135.773" layerid="11" id="gge14452" locked="0" solderexpansion=""><circle cx="4138.505" cy="3135.773" r="1.2" stroke-width="0" c_etype="pad_shell"/><circle cx="4138.505" cy="3135.773" r="0.6"  stroke-width="0" c_etype="pad_hole"/></g><g c_partid="part_via" c_etype="pinpart" c_shapetype="group" net="LED5" c_origin="4141.885,3135.753" layerid="11" id="gge14467" locked="0" solderexpansion=""><circle cx="4141.885" cy="3135.753" r="1.2" stroke-width="0" c_etype="pad_shell"/><circle cx="4141.885" cy="3135.753" r="0.6"  stroke-width="0" c_etype="pad_hole"/></g><g c_partid="part_via" c_etype="pinpart" c_shapetype="group" net="LED5" c_origin="4141.885,3077.105" layerid="11" id="gge14470" locked="0" solderexpansion=""><circle cx="4141.885" cy="3077.105" r="1.2" stroke-width="0" c_etype="pad_shell"/><circle cx="4141.885" cy="3077.105" r="0.6"  stroke-width="0" c_etype="pad_hole"/></g><g c_partid="part_via" c_etype="pinpart" c_shapetype="group" net="Q1_2" c_origin="4165.401,3099.74" layerid="11" id="gge14485" locked="0" solderexpansion=""><circle cx="4165.401" cy="3099.74" r="1.2" stroke-width="0" c_etype="pad_shell"/><circle cx="4165.401" cy="3099.74" r="0.6"  stroke-width="0" c_etype="pad_hole"/></g><g c_partid="part_via" c_etype="pinpart" c_shapetype="group" net="Q1_2" c_origin="4121.207,3179.875" layerid="11" id="gge14488" locked="0" solderexpansion=""><circle cx="4121.207" cy="3179.875" r="1.2" stroke-width="0" c_etype="pad_shell"/><circle cx="4121.207" cy="3179.875" r="0.6"  stroke-width="0" c_etype="pad_hole"/></g><g c_partid="part_via" c_etype="pinpart" c_shapetype="group" net="GND" c_origin="4205.5,3188.5" layerid="11" id="gge14611" locked="0" solderexpansion=""><circle cx="4205.5" cy="3188.5" r="1.2205" stroke-width="0" c_etype="pad_shell"/><circle cx="4205.5" cy="3188.5" r="0.6102"  stroke-width="0" c_etype="pad_hole"/></g><g c_partid="part_via" c_etype="pinpart" c_shapetype="group" net="CS" c_origin="4209,3204.5" layerid="11" id="gge14665" locked="0" solderexpansion=""><circle cx="4209" cy="3204.5" r="1.2205" stroke-width="0" c_etype="pad_shell"/><circle cx="4209" cy="3204.5" r="0.6102"  stroke-width="0" c_etype="pad_hole"/></g><g c_partid="part_via" c_etype="pinpart" c_shapetype="group" net="GND" c_origin="4161.5,3121.5" layerid="11" id="gge14800" locked="0" solderexpansion=""><circle cx="4161.5" cy="3121.5" r="1.2205" stroke-width="0" c_etype="pad_shell"/><circle cx="4161.5" cy="3121.5" r="0.6102"  stroke-width="0" c_etype="pad_hole"/></g><g c_partid="part_via" c_etype="pinpart" c_shapetype="group" net="GND" c_origin="4160.5,3174.5" layerid="11" id="gge14827" locked="0" solderexpansion=""><circle cx="4160.5" cy="3174.5" r="1.2205" stroke-width="0" c_etype="pad_shell"/><circle cx="4160.5" cy="3174.5" r="0.6102"  stroke-width="0" c_etype="pad_hole"/></g><g c_partid="part_via" c_etype="pinpart" c_shapetype="group" net="GND" c_origin="4155.5,3140" layerid="11" id="gge14875" locked="0" solderexpansion=""><circle cx="4155.5" cy="3140" r="1.2205" stroke-width="0" c_etype="pad_shell"/><circle cx="4155.5" cy="3140" r="0.6102"  stroke-width="0" c_etype="pad_hole"/></g><g c_partid="part_via" c_etype="pinpart" c_shapetype="group" net="GND" c_origin="4116.5,3125" layerid="11" id="gge14911" locked="0" solderexpansion=""><circle cx="4116.5" cy="3125" r="1.2205" stroke-width="0" c_etype="pad_shell"/><circle cx="4116.5" cy="3125" r="0.6102"  stroke-width="0" c_etype="pad_hole"/></g><g c_partid="part_via" c_etype="pinpart" c_shapetype="group" net="GND" c_origin="4219.5,3182" layerid="11" id="gge14923" locked="0" solderexpansion=""><circle cx="4219.5" cy="3182" r="1.2205" stroke-width="0" c_etype="pad_shell"/><circle cx="4219.5" cy="3182" r="0.6102"  stroke-width="0" c_etype="pad_hole"/></g><g c_partid="part_via" c_etype="pinpart" c_shapetype="group" net="GND" c_origin="4139,3174.5" layerid="11" id="gge14935" locked="0" solderexpansion=""><circle cx="4139" cy="3174.5" r="1.2205" stroke-width="0" c_etype="pad_shell"/><circle cx="4139" cy="3174.5" r="0.6102"  stroke-width="0" c_etype="pad_hole"/></g><g c_partid="part_via" c_etype="pinpart" c_shapetype="group" net="GND" c_origin="4114.5,3145.5" layerid="11" id="gge14986" locked="0" solderexpansion=""><circle cx="4114.5" cy="3145.5" r="1.2205" stroke-width="0" c_etype="pad_shell"/><circle cx="4114.5" cy="3145.5" r="0.6102"  stroke-width="0" c_etype="pad_hole"/></g><g c_partid="part_via" c_etype="pinpart" c_shapetype="group" net="GND" c_origin="4108,3187" layerid="11" id="gge15010" locked="0" solderexpansion=""><circle cx="4108" cy="3187" r="1.2205" stroke-width="0" c_etype="pad_shell"/><circle cx="4108" cy="3187" r="0.6102"  stroke-width="0" c_etype="pad_hole"/></g><g c_partid="part_via" c_etype="pinpart" c_shapetype="group" net="GND" c_origin="4128,3185.5" layerid="11" id="gge15022" locked="0" solderexpansion=""><circle cx="4128" cy="3185.5" r="1.2205" stroke-width="0" c_etype="pad_shell"/><circle cx="4128" cy="3185.5" r="0.6102"  stroke-width="0" c_etype="pad_hole"/></g><g c_partid="part_via" c_etype="pinpart" c_shapetype="group" net="GND" c_origin="4119,3115" layerid="11" id="gge15034" locked="0" solderexpansion=""><circle cx="4119" cy="3115" r="1.2205" stroke-width="0" c_etype="pad_shell"/><circle cx="4119" cy="3115" r="0.6102"  stroke-width="0" c_etype="pad_hole"/></g><g c_partid="part_via" c_etype="pinpart" c_shapetype="group" net="GND" c_origin="4100,3112.5" layerid="11" id="gge15046" locked="0" solderexpansion=""><circle cx="4100" cy="3112.5" r="1.2205" stroke-width="0" c_etype="pad_shell"/><circle cx="4100" cy="3112.5" r="0.6102"  stroke-width="0" c_etype="pad_hole"/></g><g c_partid="part_via" c_etype="pinpart" c_shapetype="group" net="GND" c_origin="4159,3103" layerid="11" id="gge15058" locked="0" solderexpansion=""><circle cx="4159" cy="3103" r="1.2205" stroke-width="0" c_etype="pad_shell"/><circle cx="4159" cy="3103" r="0.6102"  stroke-width="0" c_etype="pad_hole"/></g><g c_partid="part_via" c_etype="pinpart" c_shapetype="group" net="GND" c_origin="4192,3111" layerid="11" id="gge15070" locked="0" solderexpansion=""><circle cx="4192" cy="3111" r="1.2205" stroke-width="0" c_etype="pad_shell"/><circle cx="4192" cy="3111" r="0.6102"  stroke-width="0" c_etype="pad_hole"/></g><g c_partid="part_via" c_etype="pinpart" c_shapetype="group" net="GND" c_origin="4150,3145" layerid="11" id="gge15142" locked="0" solderexpansion=""><circle cx="4150" cy="3145" r="1.2205" stroke-width="0" c_etype="pad_shell"/><circle cx="4150" cy="3145" r="0.6102"  stroke-width="0" c_etype="pad_hole"/></g><g c_partid="part_via" c_etype="pinpart" c_shapetype="group" net="GND" c_origin="4183,3149" layerid="11" id="gge15166" locked="0" solderexpansion=""><circle cx="4183" cy="3149" r="1.2205" stroke-width="0" c_etype="pad_shell"/><circle cx="4183" cy="3149" r="0.6102"  stroke-width="0" c_etype="pad_hole"/></g><g c_partid="part_via" c_etype="pinpart" c_shapetype="group" net="GND" c_origin="4156,3093.5" layerid="11" id="gge17709" locked="0" solderexpansion=""><circle cx="4156" cy="3093.5" r="1.2205" stroke-width="0" c_etype="pad_shell"/><circle cx="4156" cy="3093.5" r="0.6102"  stroke-width="0" c_etype="pad_hole"/></g><g c_partid="part_hole" c_etype="pinpart" c_shapetype="group" c_origin="4228.209,3176.831" layerid="11" id="gge1497" locked="0" ><circle cx="4228.209" cy="3176.831" r="1.5748"  stroke-width="0" /></g><g c_partid="part_hole" c_etype="pinpart" c_shapetype="group" c_origin="4191.791,3176.831" layerid="11" id="gge1485" locked="0" ><circle cx="4191.791" cy="3176.831" r="1.5748"  stroke-width="0" /></g><polyline points="4220 3214.5 4080 3214.5" stroke-width="1"  stroke-linecap="round" fill="none" layerid="10" net="" id="gge4585" locked="0" /><polyline points="4050 3184.5 4050 3084.5" stroke-width="1"  stroke-linecap="round" fill="none" layerid="10" net="" id="gge4591" locked="0" /><polyline points="4250 3084.5 4250 3184.5" stroke-width="1"  stroke-linecap="round" fill="none" layerid="10" net="" id="gge4579" locked="0" /><polyline points="4080 3054.5 4220 3054.5" stroke-width="1"  stroke-linecap="round" fill="none" layerid="10" net="" id="gge4573" locked="0" /><path d="M4220 3054.5A30 30 0 0 1 4250 3084.5" locked="0"  fill="none" stroke-width="1" c_helper_type="arc2" net="" layerid="10" id="gge4576" /><path d="M4250 3184.5A30 30 0 0 1 4220 3214.5" locked="0"  fill="none" stroke-width="1" c_helper_type="arc2" net="" layerid="10" id="gge4582" /><path d="M4080 3214.5A30 30 0 0 1 4050 3184.5" locked="0"  fill="none" stroke-width="1" c_helper_type="arc2" net="" layerid="10" id="gge4588" /><path d="M4050 3084.5A30 30 0 0 1 4080 3054.5" locked="0"  fill="none" stroke-width="1" c_helper_type="arc2" net="" layerid="10" id="gge4594" /></svg>